%TF.GenerationSoftware,KiCad,Pcbnew,7.0.1-3b83917a11~172~ubuntu20.04.1*%
%TF.CreationDate,2023-03-30T19:27:03-04:00*%
%TF.ProjectId,I2C-ToF-Companion,4932432d-546f-4462-9d43-6f6d70616e69,rev?*%
%TF.SameCoordinates,Original*%
%TF.FileFunction,Copper,L1,Top*%
%TF.FilePolarity,Positive*%
%FSLAX46Y46*%
G04 Gerber Fmt 4.6, Leading zero omitted, Abs format (unit mm)*
G04 Created by KiCad (PCBNEW 7.0.1-3b83917a11~172~ubuntu20.04.1) date 2023-03-30 19:27:03*
%MOMM*%
%LPD*%
G01*
G04 APERTURE LIST*
G04 Aperture macros list*
%AMRoundRect*
0 Rectangle with rounded corners*
0 $1 Rounding radius*
0 $2 $3 $4 $5 $6 $7 $8 $9 X,Y pos of 4 corners*
0 Add a 4 corners polygon primitive as box body*
4,1,4,$2,$3,$4,$5,$6,$7,$8,$9,$2,$3,0*
0 Add four circle primitives for the rounded corners*
1,1,$1+$1,$2,$3*
1,1,$1+$1,$4,$5*
1,1,$1+$1,$6,$7*
1,1,$1+$1,$8,$9*
0 Add four rect primitives between the rounded corners*
20,1,$1+$1,$2,$3,$4,$5,0*
20,1,$1+$1,$4,$5,$6,$7,0*
20,1,$1+$1,$6,$7,$8,$9,0*
20,1,$1+$1,$8,$9,$2,$3,0*%
G04 Aperture macros list end*
%TA.AperFunction,WasherPad*%
%ADD10C,2.400000*%
%TD*%
%TA.AperFunction,SMDPad,CuDef*%
%ADD11R,1.425000X0.300000*%
%TD*%
%TA.AperFunction,ComponentPad*%
%ADD12C,1.400000*%
%TD*%
%TA.AperFunction,ComponentPad*%
%ADD13O,1.400000X1.400000*%
%TD*%
%TA.AperFunction,ComponentPad*%
%ADD14C,1.524000*%
%TD*%
%TA.AperFunction,ComponentPad*%
%ADD15R,1.524000X1.524000*%
%TD*%
%TA.AperFunction,SMDPad,CuDef*%
%ADD16RoundRect,0.150000X0.625000X-0.150000X0.625000X0.150000X-0.625000X0.150000X-0.625000X-0.150000X0*%
%TD*%
%TA.AperFunction,SMDPad,CuDef*%
%ADD17RoundRect,0.250000X0.650000X-0.350000X0.650000X0.350000X-0.650000X0.350000X-0.650000X-0.350000X0*%
%TD*%
%TA.AperFunction,SMDPad,CuDef*%
%ADD18RoundRect,0.150000X-0.625000X0.150000X-0.625000X-0.150000X0.625000X-0.150000X0.625000X0.150000X0*%
%TD*%
%TA.AperFunction,SMDPad,CuDef*%
%ADD19RoundRect,0.250000X-0.650000X0.350000X-0.650000X-0.350000X0.650000X-0.350000X0.650000X0.350000X0*%
%TD*%
%TA.AperFunction,ViaPad*%
%ADD20C,0.500000*%
%TD*%
%TA.AperFunction,Conductor*%
%ADD21C,0.127000*%
%TD*%
%TA.AperFunction,Conductor*%
%ADD22C,0.200000*%
%TD*%
%TA.AperFunction,Conductor*%
%ADD23C,0.250000*%
%TD*%
G04 APERTURE END LIST*
D10*
X154990800Y-71069200D03*
D11*
X146378000Y-69866000D03*
X146378000Y-70366000D03*
X146378000Y-70866000D03*
X146378000Y-71366000D03*
X146378000Y-71866000D03*
X150802000Y-71866000D03*
X150802000Y-71366000D03*
X150802000Y-70866000D03*
X150802000Y-70366000D03*
X150802000Y-69866000D03*
D12*
X145343800Y-77012800D03*
D13*
X147243800Y-77012800D03*
D14*
X156210000Y-80010000D03*
X153670000Y-80010000D03*
D15*
X151130000Y-80010000D03*
D14*
X148590000Y-80010000D03*
X146050000Y-80010000D03*
X143510000Y-80010000D03*
X140970000Y-80010000D03*
D12*
X144412800Y-74904600D03*
D13*
X146312800Y-74904600D03*
D12*
X149285200Y-74904600D03*
D13*
X151185200Y-74904600D03*
D16*
X141122400Y-76930000D03*
X141122400Y-75930000D03*
X141122400Y-74930000D03*
X141122400Y-73930000D03*
D17*
X138597400Y-78230000D03*
X138597400Y-72630000D03*
D10*
X142189200Y-71069200D03*
D18*
X155977200Y-73938000D03*
X155977200Y-74938000D03*
X155977200Y-75938000D03*
X155977200Y-76938000D03*
D19*
X158502200Y-72638000D03*
X158502200Y-78238000D03*
D12*
X150114600Y-77012800D03*
D13*
X152014600Y-77012800D03*
D20*
X143205200Y-78054200D03*
X144526000Y-71374000D03*
X155143200Y-78486000D03*
X144526000Y-69850000D03*
X157327600Y-75946000D03*
X139598400Y-74930000D03*
X139623800Y-73939400D03*
X157886400Y-75260200D03*
D21*
X148590000Y-80010000D02*
X149799124Y-78800876D01*
X149799124Y-78800876D02*
X152435476Y-78800876D01*
X152435476Y-78800876D02*
X153822400Y-77413952D01*
X153822400Y-77413952D02*
X153822400Y-74909848D01*
X151429552Y-72517000D02*
X150063500Y-72517000D01*
X153822400Y-74909848D02*
X151429552Y-72517000D01*
X149679000Y-72132500D02*
X149679000Y-71099500D01*
X150063500Y-72517000D02*
X149679000Y-72132500D01*
X149679000Y-71099500D02*
X149912500Y-70866000D01*
X149912500Y-70866000D02*
X150802000Y-70866000D01*
X146050000Y-80010000D02*
X147586124Y-78473876D01*
X147586124Y-78473876D02*
X152300028Y-78473876D01*
X152300028Y-78473876D02*
X153390600Y-77383304D01*
X153390600Y-77383304D02*
X153390600Y-75234800D01*
X153390600Y-75234800D02*
X151155400Y-72999600D01*
X149352000Y-72517000D02*
X149352000Y-70764400D01*
X149352000Y-70764400D02*
X149750400Y-70366000D01*
X151155400Y-72999600D02*
X149834600Y-72999600D01*
X149834600Y-72999600D02*
X149352000Y-72517000D01*
X149750400Y-70366000D02*
X150802000Y-70366000D01*
D22*
X146378000Y-70366000D02*
X147658200Y-70366000D01*
X147658200Y-70366000D02*
X148107400Y-70815200D01*
X148107400Y-76149200D02*
X147243800Y-77012800D01*
X148107400Y-70815200D02*
X148107400Y-76149200D01*
D23*
X144526000Y-72339200D02*
X142925800Y-73939400D01*
X144526000Y-71374000D02*
X144526000Y-72339200D01*
X141849600Y-75930000D02*
X141122400Y-75930000D01*
X142925800Y-73939400D02*
X142925800Y-74853800D01*
X142925800Y-74853800D02*
X141849600Y-75930000D01*
D22*
X146312800Y-74904600D02*
X147616800Y-73600600D01*
X146378000Y-70866000D02*
X147267500Y-70866000D01*
X147267500Y-70866000D02*
X147616800Y-71215300D01*
X147616800Y-71215300D02*
X147616800Y-73600600D01*
D23*
X144412800Y-76081800D02*
X145343800Y-77012800D01*
X145558000Y-71866000D02*
X146378000Y-71866000D01*
X145542000Y-71882000D02*
X145558000Y-71866000D01*
X144526000Y-71374000D02*
X146370000Y-71374000D01*
X155194000Y-78486000D02*
X153670000Y-80010000D01*
X144412800Y-74904600D02*
X144412800Y-76081800D01*
X144526000Y-71374000D02*
X145034000Y-71882000D01*
X145034000Y-71882000D02*
X145542000Y-71882000D01*
X154686000Y-77978000D02*
X154686000Y-75590400D01*
X144412800Y-72409951D02*
X144412800Y-74904600D01*
X154686000Y-75590400D02*
X155338400Y-74938000D01*
X144526000Y-72296751D02*
X144412800Y-72409951D01*
X155194000Y-78486000D02*
X154686000Y-77978000D01*
X144526000Y-71374000D02*
X144526000Y-72296751D01*
X144542000Y-69866000D02*
X144526000Y-69850000D01*
D22*
X154228800Y-77521618D02*
X151740418Y-80010000D01*
D23*
X144526000Y-69850000D02*
X146362000Y-69850000D01*
D22*
X154228800Y-75275004D02*
X154228800Y-77521618D01*
X155565804Y-73938000D02*
X154228800Y-75275004D01*
X157327600Y-73877004D02*
X156704196Y-73253600D01*
D21*
X150802000Y-71366000D02*
X151706200Y-71366000D01*
D22*
X157319600Y-75938000D02*
X157327600Y-75946000D01*
X153652100Y-73253600D02*
X156704196Y-73253600D01*
X139598400Y-74930000D02*
X141122400Y-74930000D01*
X157327600Y-75946000D02*
X157327600Y-73877004D01*
X151764500Y-71366000D02*
X150802000Y-71366000D01*
X151764500Y-71366000D02*
X153652100Y-73253600D01*
X155977200Y-75938000D02*
X157319600Y-75938000D01*
X139633200Y-73930000D02*
X139623800Y-73939400D01*
X156869882Y-72853600D02*
X153817786Y-72853600D01*
X141122400Y-73930000D02*
X139633200Y-73930000D01*
X151603200Y-69866000D02*
X150802000Y-69866000D01*
X157861000Y-76924067D02*
X157877600Y-76907467D01*
D21*
X150802000Y-69866000D02*
X151691500Y-69866000D01*
D22*
X155977200Y-76938000D02*
X157847067Y-76938000D01*
X153817786Y-72853600D02*
X152019000Y-71054814D01*
X157847067Y-76938000D02*
X157861000Y-76924067D01*
X152019000Y-70281800D02*
X151603200Y-69866000D01*
X152019000Y-71054814D02*
X152019000Y-70281800D01*
X157877600Y-73861318D02*
X156869882Y-72853600D01*
X157877600Y-76907467D02*
X157877600Y-73861318D01*
%TA.AperFunction,Conductor*%
G36*
X137745304Y-73703663D02*
G01*
X137794602Y-73719999D01*
X137802825Y-73720839D01*
X137897391Y-73730500D01*
X138753332Y-73730499D01*
X138819304Y-73749505D01*
X138865052Y-73800697D01*
X138876552Y-73868383D01*
X138868550Y-73939399D01*
X138887486Y-74107456D01*
X138887486Y-74107458D01*
X138887487Y-74107459D01*
X138943344Y-74267090D01*
X138994308Y-74348199D01*
X138994508Y-74348516D01*
X139013514Y-74414488D01*
X138994508Y-74480460D01*
X138917944Y-74602309D01*
X138862086Y-74761943D01*
X138843150Y-74929999D01*
X138862086Y-75098056D01*
X138862086Y-75098058D01*
X138862087Y-75098059D01*
X138917944Y-75257690D01*
X139007923Y-75400890D01*
X139127510Y-75520477D01*
X139270710Y-75610456D01*
X139430341Y-75666313D01*
X139598400Y-75685249D01*
X139709016Y-75672786D01*
X139776701Y-75684286D01*
X139827894Y-75730034D01*
X139846900Y-75796006D01*
X139846900Y-76145692D01*
X139849802Y-76182572D01*
X139895655Y-76340396D01*
X139895656Y-76340398D01*
X139904992Y-76356184D01*
X139911607Y-76367370D01*
X139928874Y-76430488D01*
X139911608Y-76493608D01*
X139896117Y-76519802D01*
X139850300Y-76677507D01*
X139850104Y-76679999D01*
X139850105Y-76680000D01*
X140213352Y-76680000D01*
X140247947Y-76684924D01*
X140394827Y-76727597D01*
X140394831Y-76727598D01*
X140431706Y-76730500D01*
X141813092Y-76730500D01*
X141813094Y-76730500D01*
X141849969Y-76727598D01*
X141937227Y-76702247D01*
X141996853Y-76684924D01*
X142031448Y-76680000D01*
X142394695Y-76680000D01*
X142394695Y-76679999D01*
X142394499Y-76677511D01*
X142348680Y-76519799D01*
X142333193Y-76493611D01*
X142315925Y-76430489D01*
X142333193Y-76367369D01*
X142349144Y-76340398D01*
X142350642Y-76335240D01*
X142382037Y-76282151D01*
X143178508Y-75485680D01*
X143228141Y-75455344D01*
X143286150Y-75450980D01*
X143339765Y-75473552D01*
X143377185Y-75518089D01*
X143378027Y-75519778D01*
X143387743Y-75539291D01*
X143521817Y-75716835D01*
X143686239Y-75866725D01*
X143728578Y-75892941D01*
X143771629Y-75938028D01*
X143787300Y-75998367D01*
X143787300Y-75999056D01*
X143785035Y-76019562D01*
X143787239Y-76089673D01*
X143787300Y-76093568D01*
X143787300Y-76121149D01*
X143787803Y-76125134D01*
X143788718Y-76136767D01*
X143790090Y-76180426D01*
X143795679Y-76199660D01*
X143799625Y-76218716D01*
X143802135Y-76238592D01*
X143818214Y-76279204D01*
X143821997Y-76290251D01*
X143834182Y-76332191D01*
X143844380Y-76349435D01*
X143852936Y-76366900D01*
X143860314Y-76385532D01*
X143860315Y-76385533D01*
X143885980Y-76420859D01*
X143892393Y-76430622D01*
X143914626Y-76468216D01*
X143914629Y-76468219D01*
X143914630Y-76468220D01*
X143928795Y-76482385D01*
X143941427Y-76497175D01*
X143953206Y-76513387D01*
X143960960Y-76519802D01*
X143986858Y-76541226D01*
X143995499Y-76549089D01*
X144124654Y-76678244D01*
X144156991Y-76734753D01*
X144156474Y-76779519D01*
X144159745Y-76779823D01*
X144138157Y-77012799D01*
X144158685Y-77234337D01*
X144219569Y-77448326D01*
X144318741Y-77647488D01*
X144452819Y-77825037D01*
X144617237Y-77974924D01*
X144806395Y-78092045D01*
X144806397Y-78092045D01*
X144806399Y-78092047D01*
X145013860Y-78172418D01*
X145232557Y-78213300D01*
X145455041Y-78213300D01*
X145455043Y-78213300D01*
X145673740Y-78172418D01*
X145881201Y-78092047D01*
X146070362Y-77974924D01*
X146210263Y-77847386D01*
X146263555Y-77818770D01*
X146324045Y-77818770D01*
X146377336Y-77847386D01*
X146435948Y-77900818D01*
X146517240Y-77974926D01*
X146706395Y-78092045D01*
X146706397Y-78092045D01*
X146706399Y-78092047D01*
X146863343Y-78152847D01*
X146913023Y-78188159D01*
X146939877Y-78242879D01*
X146937414Y-78303782D01*
X146906228Y-78356154D01*
X146502389Y-78759993D01*
X146446801Y-78792087D01*
X146382616Y-78792087D01*
X146270068Y-78761930D01*
X146270067Y-78761929D01*
X146270064Y-78761929D01*
X146049999Y-78742676D01*
X145829934Y-78761929D01*
X145616548Y-78819106D01*
X145416338Y-78912466D01*
X145235379Y-79039174D01*
X145079174Y-79195379D01*
X144952466Y-79376338D01*
X144892382Y-79505189D01*
X144846625Y-79557365D01*
X144780000Y-79576784D01*
X144713375Y-79557365D01*
X144667618Y-79505189D01*
X144623834Y-79411295D01*
X144607534Y-79376339D01*
X144480826Y-79195380D01*
X144324620Y-79039174D01*
X144143662Y-78912466D01*
X144132656Y-78907334D01*
X143943451Y-78819106D01*
X143730065Y-78761929D01*
X143509999Y-78742676D01*
X143289934Y-78761929D01*
X143076548Y-78819106D01*
X142876338Y-78912466D01*
X142695379Y-79039174D01*
X142539174Y-79195379D01*
X142412466Y-79376338D01*
X142352382Y-79505189D01*
X142306625Y-79557365D01*
X142240000Y-79576784D01*
X142173375Y-79557365D01*
X142127618Y-79505189D01*
X142083834Y-79411295D01*
X142067534Y-79376339D01*
X141940826Y-79195380D01*
X141784620Y-79039174D01*
X141603662Y-78912466D01*
X141592656Y-78907334D01*
X141403451Y-78819106D01*
X141190065Y-78761929D01*
X140969999Y-78742676D01*
X140749934Y-78761929D01*
X140536548Y-78819106D01*
X140336338Y-78912466D01*
X140155381Y-79039172D01*
X140098056Y-79096498D01*
X140047088Y-79127257D01*
X139987659Y-79130718D01*
X139933465Y-79106083D01*
X139896998Y-79059031D01*
X139886661Y-79000406D01*
X139904837Y-78943719D01*
X139932214Y-78899334D01*
X139987399Y-78732797D01*
X139997900Y-78630009D01*
X139997899Y-77829992D01*
X139991308Y-77765475D01*
X140003003Y-77698956D01*
X140047828Y-77648431D01*
X140112484Y-77628895D01*
X140177787Y-77646144D01*
X140237202Y-77681282D01*
X140394906Y-77727099D01*
X140431761Y-77730000D01*
X140872400Y-77730000D01*
X140872400Y-77180000D01*
X141372400Y-77180000D01*
X141372400Y-77730000D01*
X141813039Y-77730000D01*
X141849893Y-77727099D01*
X142007597Y-77681282D01*
X142148957Y-77597682D01*
X142265082Y-77481557D01*
X142348680Y-77340200D01*
X142394499Y-77182488D01*
X142394695Y-77180000D01*
X141372400Y-77180000D01*
X140872400Y-77180000D01*
X139850105Y-77180000D01*
X139834572Y-77196802D01*
X139833480Y-77202283D01*
X139787672Y-77251727D01*
X139722767Y-77269904D01*
X139657942Y-77251443D01*
X139566734Y-77195186D01*
X139400197Y-77140000D01*
X139297409Y-77129500D01*
X137897391Y-77129500D01*
X137794603Y-77140000D01*
X137745304Y-77156337D01*
X137687437Y-77161188D01*
X137633707Y-77139161D01*
X137595897Y-77095087D01*
X137582300Y-77038631D01*
X137582300Y-73821369D01*
X137595897Y-73764913D01*
X137633707Y-73720839D01*
X137687437Y-73698812D01*
X137745304Y-73703663D01*
G37*
%TD.AperFunction*%
%TA.AperFunction,Conductor*%
G36*
X156165200Y-73870713D02*
G01*
X156210587Y-73916100D01*
X156227200Y-73978100D01*
X156227200Y-74013500D01*
X156210587Y-74075500D01*
X156165200Y-74120887D01*
X156103200Y-74137500D01*
X155286506Y-74137500D01*
X155274214Y-74138467D01*
X155249627Y-74140402D01*
X155102747Y-74183076D01*
X155068152Y-74188000D01*
X154704904Y-74188000D01*
X154705100Y-74190488D01*
X154750919Y-74348199D01*
X154766407Y-74374389D01*
X154783674Y-74437508D01*
X154766408Y-74500627D01*
X154750455Y-74527602D01*
X154712756Y-74657362D01*
X154681361Y-74710447D01*
X154578472Y-74813336D01*
X154526786Y-74844316D01*
X154466600Y-74847272D01*
X154412126Y-74821508D01*
X154376230Y-74773108D01*
X154359587Y-74732930D01*
X154315053Y-74625415D01*
X154296901Y-74601759D01*
X154224650Y-74507598D01*
X154201504Y-74489837D01*
X154189312Y-74479144D01*
X153775950Y-74065781D01*
X153745700Y-74016418D01*
X153741158Y-73958702D01*
X153763313Y-73905215D01*
X153807336Y-73867615D01*
X153863631Y-73854100D01*
X156103200Y-73854100D01*
X156165200Y-73870713D01*
G37*
%TD.AperFunction*%
%TA.AperFunction,Conductor*%
G36*
X159484900Y-68597113D02*
G01*
X159530287Y-68642500D01*
X159546900Y-68704500D01*
X159546900Y-71456440D01*
X159533303Y-71512896D01*
X159495493Y-71556970D01*
X159441762Y-71578997D01*
X159383898Y-71574146D01*
X159329628Y-71556163D01*
X159304995Y-71548000D01*
X159202209Y-71537500D01*
X157802191Y-71537500D01*
X157699403Y-71548000D01*
X157532865Y-71603186D01*
X157383542Y-71695288D01*
X157259488Y-71819342D01*
X157167386Y-71968665D01*
X157112200Y-72135202D01*
X157110597Y-72150901D01*
X157087061Y-72211862D01*
X157035802Y-72252393D01*
X156971056Y-72261237D01*
X156948977Y-72258331D01*
X156948976Y-72258330D01*
X156869882Y-72247917D01*
X156842045Y-72251582D01*
X156838579Y-72252039D01*
X156822395Y-72253100D01*
X156479181Y-72253100D01*
X156413209Y-72234094D01*
X156367461Y-72182901D01*
X156355961Y-72115216D01*
X156382234Y-72051787D01*
X156399759Y-72029812D01*
X156527193Y-71809088D01*
X156620308Y-71571837D01*
X156677022Y-71323357D01*
X156696068Y-71069200D01*
X156677022Y-70815043D01*
X156620308Y-70566563D01*
X156527193Y-70329312D01*
X156399759Y-70108588D01*
X156240850Y-69909323D01*
X156054017Y-69735968D01*
X155843434Y-69592395D01*
X155613804Y-69481811D01*
X155370258Y-69406687D01*
X155118235Y-69368700D01*
X154863365Y-69368700D01*
X154611342Y-69406687D01*
X154367796Y-69481811D01*
X154138166Y-69592395D01*
X154045401Y-69655641D01*
X153927581Y-69735969D01*
X153800276Y-69854091D01*
X153740750Y-69909323D01*
X153695304Y-69966311D01*
X153581838Y-70108592D01*
X153454408Y-70329308D01*
X153361292Y-70566562D01*
X153304577Y-70815045D01*
X153285531Y-71069200D01*
X153293197Y-71171495D01*
X153283198Y-71230348D01*
X153246857Y-71277708D01*
X153192597Y-71302599D01*
X153132994Y-71299252D01*
X153081863Y-71268442D01*
X152655819Y-70842398D01*
X152628939Y-70802170D01*
X152619500Y-70754717D01*
X152619500Y-70329287D01*
X152620561Y-70313101D01*
X152624682Y-70281799D01*
X152621964Y-70261160D01*
X152604044Y-70125038D01*
X152543536Y-69978959D01*
X152493346Y-69913550D01*
X152447722Y-69854091D01*
X152447282Y-69853517D01*
X152422229Y-69834294D01*
X152410034Y-69823599D01*
X152213014Y-69626579D01*
X152186134Y-69586351D01*
X152184153Y-69581567D01*
X152093750Y-69463750D01*
X151975933Y-69373347D01*
X151964715Y-69368700D01*
X151929423Y-69354081D01*
X151911445Y-69343702D01*
X151832799Y-69311125D01*
X151793511Y-69294852D01*
X151766658Y-69279560D01*
X151756831Y-69272204D01*
X151756828Y-69272203D01*
X151756827Y-69272202D01*
X151621985Y-69221909D01*
X151602112Y-69219772D01*
X151562373Y-69215500D01*
X151562369Y-69215500D01*
X150041630Y-69215500D01*
X149982015Y-69221909D01*
X149847169Y-69272204D01*
X149731954Y-69358454D01*
X149645704Y-69473668D01*
X149601755Y-69591501D01*
X149595409Y-69608517D01*
X149590343Y-69655641D01*
X149589000Y-69668131D01*
X149589000Y-69739530D01*
X149579561Y-69786983D01*
X149552681Y-69827211D01*
X149512452Y-69854091D01*
X149465967Y-69873345D01*
X149382076Y-69937716D01*
X149382075Y-69937719D01*
X149348149Y-69963750D01*
X149330394Y-69986888D01*
X149319701Y-69999080D01*
X148985080Y-70333701D01*
X148972888Y-70344394D01*
X148949749Y-70362150D01*
X148914598Y-70407958D01*
X148914588Y-70407973D01*
X148859345Y-70479968D01*
X148853099Y-70495048D01*
X148814024Y-70545971D01*
X148754723Y-70570533D01*
X148691086Y-70562155D01*
X148640163Y-70523080D01*
X148583421Y-70449133D01*
X148583420Y-70449132D01*
X148535682Y-70386917D01*
X148510629Y-70367694D01*
X148498434Y-70356999D01*
X148116399Y-69974964D01*
X148105703Y-69962768D01*
X148086481Y-69937716D01*
X147961041Y-69841464D01*
X147823508Y-69784496D01*
X147818712Y-69782509D01*
X147815412Y-69781014D01*
X147696257Y-69765327D01*
X147644989Y-69746436D01*
X147606817Y-69707344D01*
X147589152Y-69655641D01*
X147584097Y-69608624D01*
X147533852Y-69473910D01*
X147447688Y-69358811D01*
X147332589Y-69272647D01*
X147197875Y-69222402D01*
X147138324Y-69216000D01*
X146528000Y-69216000D01*
X146528000Y-69591500D01*
X146511388Y-69653499D01*
X146466001Y-69698886D01*
X146404002Y-69715500D01*
X146378002Y-69715500D01*
X146352000Y-69715500D01*
X146290001Y-69698889D01*
X146244613Y-69653502D01*
X146228000Y-69591501D01*
X146228000Y-69216000D01*
X145617676Y-69216000D01*
X145558124Y-69222402D01*
X145423410Y-69272647D01*
X145308311Y-69358811D01*
X145222147Y-69473910D01*
X145171902Y-69608624D01*
X145165500Y-69668176D01*
X145165500Y-69716000D01*
X145166872Y-69716000D01*
X145232039Y-69734505D01*
X145277756Y-69784496D01*
X145290378Y-69851053D01*
X145266139Y-69914311D01*
X145227212Y-69966311D01*
X145183449Y-70002884D01*
X145177120Y-70004379D01*
X145165500Y-70016000D01*
X145165500Y-70063828D01*
X145169431Y-70100400D01*
X145169431Y-70126904D01*
X145165000Y-70168127D01*
X145165000Y-70563871D01*
X145169179Y-70602746D01*
X145169179Y-70629250D01*
X145168265Y-70637753D01*
X145147666Y-70694002D01*
X145103103Y-70734031D01*
X145044975Y-70748500D01*
X144976876Y-70748500D01*
X144910904Y-70729494D01*
X144853690Y-70693544D01*
X144753362Y-70658438D01*
X144694059Y-70637687D01*
X144694058Y-70637686D01*
X144694056Y-70637686D01*
X144526000Y-70618750D01*
X144357943Y-70637686D01*
X144270948Y-70668127D01*
X144198310Y-70693544D01*
X144055110Y-70783523D01*
X144055108Y-70783524D01*
X144043280Y-70790957D01*
X144041679Y-70788410D01*
X144004880Y-70809422D01*
X143939584Y-70808500D01*
X143883812Y-70774533D01*
X143853031Y-70716943D01*
X143818708Y-70566563D01*
X143725593Y-70329312D01*
X143598159Y-70108588D01*
X143439250Y-69909323D01*
X143252417Y-69735968D01*
X143041834Y-69592395D01*
X142812204Y-69481811D01*
X142568658Y-69406687D01*
X142316635Y-69368700D01*
X142061765Y-69368700D01*
X141809742Y-69406687D01*
X141566196Y-69481811D01*
X141336566Y-69592395D01*
X141243801Y-69655641D01*
X141125981Y-69735969D01*
X140998676Y-69854091D01*
X140939150Y-69909323D01*
X140893704Y-69966311D01*
X140780238Y-70108592D01*
X140652808Y-70329308D01*
X140559692Y-70566562D01*
X140502977Y-70815045D01*
X140483931Y-71069200D01*
X140502977Y-71323354D01*
X140559692Y-71571837D01*
X140652808Y-71809091D01*
X140745082Y-71968915D01*
X140780241Y-72029812D01*
X140939150Y-72229077D01*
X141125983Y-72402432D01*
X141336566Y-72546005D01*
X141566196Y-72656589D01*
X141809742Y-72731713D01*
X142061765Y-72769700D01*
X142316635Y-72769700D01*
X142568658Y-72731713D01*
X142812204Y-72656589D01*
X143041834Y-72546005D01*
X143183571Y-72449370D01*
X143240305Y-72428520D01*
X143300158Y-72436969D01*
X143348905Y-72472712D01*
X143374962Y-72527254D01*
X143372138Y-72587634D01*
X143341102Y-72639505D01*
X142542008Y-73438599D01*
X142525908Y-73451497D01*
X142505787Y-73472924D01*
X142458313Y-73504374D01*
X142401788Y-73511288D01*
X142348134Y-73492208D01*
X142308667Y-73451159D01*
X142265481Y-73378135D01*
X142149265Y-73261919D01*
X142141110Y-73257096D01*
X142007797Y-73178255D01*
X141849972Y-73132402D01*
X141827843Y-73130660D01*
X141813094Y-73129500D01*
X140431706Y-73129500D01*
X140419414Y-73130467D01*
X140394827Y-73132402D01*
X140237000Y-73178255D01*
X140177850Y-73213237D01*
X140112547Y-73230486D01*
X140047891Y-73210949D01*
X140003067Y-73160424D01*
X139991372Y-73093904D01*
X139997900Y-73030009D01*
X139997899Y-72229992D01*
X139997805Y-72229076D01*
X139987399Y-72127203D01*
X139972884Y-72083401D01*
X139932214Y-71960666D01*
X139860819Y-71844915D01*
X139840111Y-71811342D01*
X139716057Y-71687288D01*
X139566734Y-71595186D01*
X139400197Y-71540000D01*
X139297409Y-71529500D01*
X137897391Y-71529500D01*
X137794603Y-71540000D01*
X137745304Y-71556337D01*
X137687437Y-71561188D01*
X137633707Y-71539161D01*
X137595897Y-71495087D01*
X137582300Y-71438631D01*
X137582300Y-68704500D01*
X137598913Y-68642500D01*
X137644300Y-68597113D01*
X137706300Y-68580500D01*
X159422900Y-68580500D01*
X159484900Y-68597113D01*
G37*
%TD.AperFunction*%
M02*
