%TF.GenerationSoftware,KiCad,Pcbnew,7.0.1-3b83917a11~172~ubuntu20.04.1*%
%TF.CreationDate,2023-03-16T21:36:43-04:00*%
%TF.ProjectId,I2C-ToF-Companion,4932432d-546f-4462-9d43-6f6d70616e69,rev?*%
%TF.SameCoordinates,Original*%
%TF.FileFunction,Copper,L2,Bot*%
%TF.FilePolarity,Positive*%
%FSLAX46Y46*%
G04 Gerber Fmt 4.6, Leading zero omitted, Abs format (unit mm)*
G04 Created by KiCad (PCBNEW 7.0.1-3b83917a11~172~ubuntu20.04.1) date 2023-03-16 21:36:43*
%MOMM*%
%LPD*%
G01*
G04 APERTURE LIST*
%TA.AperFunction,ComponentPad*%
%ADD10C,1.400000*%
%TD*%
%TA.AperFunction,ComponentPad*%
%ADD11O,1.400000X1.400000*%
%TD*%
%TA.AperFunction,ComponentPad*%
%ADD12C,1.524000*%
%TD*%
%TA.AperFunction,ComponentPad*%
%ADD13R,1.524000X1.524000*%
%TD*%
%TA.AperFunction,ViaPad*%
%ADD14C,0.500000*%
%TD*%
%TA.AperFunction,Conductor*%
%ADD15C,0.200000*%
%TD*%
%TA.AperFunction,Conductor*%
%ADD16C,0.250000*%
%TD*%
G04 APERTURE END LIST*
D10*
X145343800Y-77012800D03*
D11*
X147243800Y-77012800D03*
D12*
X156210000Y-80010000D03*
X153670000Y-80010000D03*
D13*
X151130000Y-80010000D03*
D12*
X148590000Y-80010000D03*
X146050000Y-80010000D03*
X143510000Y-80010000D03*
X140970000Y-80010000D03*
D10*
X144412800Y-74904600D03*
D11*
X146312800Y-74904600D03*
D10*
X149285200Y-74904600D03*
D11*
X151185200Y-74904600D03*
D10*
X150114600Y-77012800D03*
D11*
X152014600Y-77012800D03*
D14*
X144526000Y-71374000D03*
X158750000Y-75946000D03*
X157226000Y-76962000D03*
X144526000Y-69850000D03*
X157226000Y-74930000D03*
X140208000Y-75946000D03*
X157988000Y-73914000D03*
X139446000Y-76962000D03*
D15*
X146312800Y-74904600D02*
X149285200Y-74904600D01*
X147243800Y-77012800D02*
X150114600Y-77012800D01*
D16*
X147066000Y-70866000D02*
X148590000Y-69342000D01*
X158750000Y-75946000D02*
X158750000Y-71120000D01*
X145034000Y-70866000D02*
X147066000Y-70866000D01*
X158750000Y-71120000D02*
X156972000Y-69342000D01*
X145034000Y-70866000D02*
X144526000Y-71374000D01*
X156972000Y-69342000D02*
X148590000Y-69342000D01*
X157226000Y-74930000D02*
X155981400Y-73685400D01*
X142468600Y-73685400D02*
X140208000Y-75946000D01*
X155981400Y-73685400D02*
X142468600Y-73685400D01*
X139446000Y-75894827D02*
X142105427Y-73235400D01*
X139446000Y-76962000D02*
X139446000Y-75894827D01*
X142105427Y-73235400D02*
X157309400Y-73235400D01*
X157309400Y-73235400D02*
X157988000Y-73914000D01*
%TA.AperFunction,Conductor*%
G36*
X148252057Y-68595839D02*
G01*
X148297017Y-68638061D01*
X148316074Y-68696721D01*
X148304513Y-68757305D01*
X148265194Y-68804823D01*
X148260726Y-68808070D01*
X148250921Y-68815193D01*
X148241168Y-68821599D01*
X148203579Y-68843829D01*
X148189410Y-68857998D01*
X148174622Y-68870628D01*
X148158413Y-68882405D01*
X148130572Y-68916058D01*
X148122711Y-68924696D01*
X146843228Y-70204181D01*
X146803000Y-70231061D01*
X146755547Y-70240500D01*
X145116740Y-70240500D01*
X145096236Y-70238236D01*
X145026144Y-70240439D01*
X145022250Y-70240500D01*
X144994648Y-70240500D01*
X144990653Y-70241004D01*
X144979029Y-70241918D01*
X144935368Y-70243290D01*
X144916129Y-70248880D01*
X144897080Y-70252825D01*
X144877208Y-70255335D01*
X144836593Y-70271415D01*
X144825549Y-70275196D01*
X144783611Y-70287382D01*
X144766364Y-70297581D01*
X144748900Y-70306136D01*
X144730267Y-70313514D01*
X144694926Y-70339189D01*
X144685168Y-70345599D01*
X144647579Y-70367829D01*
X144633410Y-70381998D01*
X144618622Y-70394628D01*
X144602413Y-70406405D01*
X144574572Y-70440058D01*
X144566711Y-70448696D01*
X144408381Y-70607026D01*
X144361655Y-70636386D01*
X144198312Y-70693542D01*
X144055108Y-70783524D01*
X143935524Y-70903108D01*
X143845544Y-71046310D01*
X143789686Y-71205943D01*
X143770750Y-71373999D01*
X143789686Y-71542056D01*
X143789686Y-71542058D01*
X143789687Y-71542059D01*
X143845544Y-71701690D01*
X143935523Y-71844890D01*
X144055110Y-71964477D01*
X144198310Y-72054456D01*
X144357941Y-72110313D01*
X144526000Y-72129249D01*
X144694059Y-72110313D01*
X144853690Y-72054456D01*
X144996890Y-71964477D01*
X145116477Y-71844890D01*
X145206456Y-71701690D01*
X145250945Y-71574544D01*
X145277088Y-71531159D01*
X145318400Y-71501846D01*
X145367987Y-71491500D01*
X146983256Y-71491500D01*
X147003762Y-71493764D01*
X147006665Y-71493672D01*
X147006667Y-71493673D01*
X147073872Y-71491561D01*
X147077768Y-71491500D01*
X147105349Y-71491500D01*
X147105350Y-71491500D01*
X147109319Y-71490998D01*
X147120965Y-71490080D01*
X147164627Y-71488709D01*
X147183859Y-71483120D01*
X147202918Y-71479174D01*
X147209196Y-71478381D01*
X147222792Y-71476664D01*
X147263407Y-71460582D01*
X147274444Y-71456803D01*
X147316390Y-71444618D01*
X147333629Y-71434422D01*
X147351102Y-71425862D01*
X147369732Y-71418486D01*
X147405064Y-71392814D01*
X147414830Y-71386400D01*
X147435798Y-71374000D01*
X147452420Y-71364170D01*
X147466585Y-71350004D01*
X147481373Y-71337373D01*
X147497587Y-71325594D01*
X147525438Y-71291926D01*
X147533279Y-71283309D01*
X148812771Y-70003819D01*
X148853000Y-69976939D01*
X148900453Y-69967500D01*
X153883242Y-69967500D01*
X153939537Y-69981015D01*
X153983560Y-70018615D01*
X154005715Y-70072102D01*
X154001173Y-70129818D01*
X153970923Y-70179181D01*
X153952308Y-70197795D01*
X153952305Y-70197798D01*
X153952305Y-70197799D01*
X153823328Y-70381998D01*
X153816764Y-70391372D01*
X153716897Y-70605537D01*
X153655736Y-70833792D01*
X153635140Y-71069200D01*
X153655736Y-71304607D01*
X153708586Y-71501846D01*
X153716897Y-71532863D01*
X153816765Y-71747029D01*
X153952305Y-71940601D01*
X154119399Y-72107695D01*
X154312971Y-72243235D01*
X154527137Y-72343103D01*
X154599751Y-72362559D01*
X154613057Y-72366125D01*
X154664736Y-72394478D01*
X154697485Y-72443489D01*
X154703902Y-72502085D01*
X154682538Y-72557023D01*
X154638220Y-72595889D01*
X154580963Y-72609900D01*
X142599037Y-72609900D01*
X142541780Y-72595889D01*
X142497462Y-72557023D01*
X142476098Y-72502085D01*
X142482515Y-72443489D01*
X142515264Y-72394478D01*
X142566943Y-72366125D01*
X142575884Y-72363728D01*
X142652863Y-72343103D01*
X142867029Y-72243235D01*
X143060601Y-72107695D01*
X143227695Y-71940601D01*
X143363235Y-71747030D01*
X143463103Y-71532863D01*
X143524263Y-71304608D01*
X143544859Y-71069200D01*
X143524263Y-70833792D01*
X143463103Y-70605537D01*
X143363235Y-70391371D01*
X143227695Y-70197799D01*
X143060601Y-70030705D01*
X142867029Y-69895165D01*
X142652863Y-69795297D01*
X142652862Y-69795296D01*
X142424607Y-69734136D01*
X142248168Y-69718700D01*
X142248166Y-69718700D01*
X142130234Y-69718700D01*
X142130232Y-69718700D01*
X141953792Y-69734136D01*
X141725536Y-69795297D01*
X141511370Y-69895165D01*
X141317798Y-70030705D01*
X141150708Y-70197795D01*
X141150705Y-70197798D01*
X141150705Y-70197799D01*
X141021728Y-70381998D01*
X141015164Y-70391372D01*
X140915297Y-70605537D01*
X140854136Y-70833792D01*
X140833540Y-71069200D01*
X140854136Y-71304607D01*
X140906986Y-71501846D01*
X140915297Y-71532863D01*
X141015165Y-71747029D01*
X141150705Y-71940601D01*
X141317799Y-72107695D01*
X141511371Y-72243235D01*
X141725537Y-72343103D01*
X141904040Y-72390932D01*
X141920647Y-72395382D01*
X141974192Y-72425479D01*
X142006723Y-72477580D01*
X142010259Y-72538901D01*
X141983933Y-72594397D01*
X141934203Y-72630449D01*
X141908030Y-72640812D01*
X141896981Y-72644594D01*
X141855037Y-72656782D01*
X141855034Y-72656783D01*
X141837792Y-72666979D01*
X141820331Y-72675533D01*
X141801694Y-72682912D01*
X141766358Y-72708585D01*
X141756601Y-72714995D01*
X141719007Y-72737229D01*
X141704840Y-72751396D01*
X141690051Y-72764026D01*
X141673840Y-72775804D01*
X141645999Y-72809458D01*
X141638138Y-72818097D01*
X139062208Y-75394026D01*
X139046110Y-75406923D01*
X138998096Y-75458052D01*
X138995391Y-75460844D01*
X138975874Y-75480361D01*
X138973415Y-75483532D01*
X138965842Y-75492399D01*
X138935935Y-75524247D01*
X138926285Y-75541801D01*
X138915609Y-75558055D01*
X138903326Y-75573890D01*
X138885975Y-75613985D01*
X138880838Y-75624471D01*
X138859802Y-75662734D01*
X138854821Y-75682136D01*
X138848520Y-75700538D01*
X138840561Y-75718929D01*
X138833728Y-75762069D01*
X138831360Y-75773501D01*
X138820500Y-75815805D01*
X138820500Y-75835843D01*
X138818973Y-75855242D01*
X138815840Y-75875021D01*
X138819950Y-75918502D01*
X138820500Y-75930171D01*
X138820500Y-76511124D01*
X138801494Y-76577096D01*
X138765544Y-76634309D01*
X138709686Y-76793943D01*
X138690750Y-76962000D01*
X138709686Y-77130056D01*
X138709686Y-77130058D01*
X138709687Y-77130059D01*
X138765544Y-77289690D01*
X138855523Y-77432890D01*
X138975110Y-77552477D01*
X139118310Y-77642456D01*
X139277941Y-77698313D01*
X139446000Y-77717249D01*
X139614059Y-77698313D01*
X139773690Y-77642456D01*
X139916890Y-77552477D01*
X140036477Y-77432890D01*
X140126456Y-77289690D01*
X140182313Y-77130059D01*
X140201249Y-76962000D01*
X140186206Y-76828489D01*
X140195772Y-76765019D01*
X140235792Y-76714835D01*
X140295542Y-76691385D01*
X140376059Y-76682313D01*
X140535690Y-76626456D01*
X140678890Y-76536477D01*
X140798477Y-76416890D01*
X140888456Y-76273690D01*
X140944313Y-76114059D01*
X140944313Y-76114054D01*
X140945613Y-76110341D01*
X140974972Y-76063616D01*
X142691371Y-74347219D01*
X142731600Y-74320339D01*
X142779053Y-74310900D01*
X143169372Y-74310900D01*
X143224644Y-74323900D01*
X143268326Y-74360173D01*
X143291261Y-74412115D01*
X143288638Y-74468834D01*
X143227685Y-74683062D01*
X143207157Y-74904599D01*
X143227685Y-75126137D01*
X143288569Y-75340126D01*
X143387741Y-75539288D01*
X143521819Y-75716837D01*
X143686237Y-75866724D01*
X143875395Y-75983845D01*
X143875397Y-75983845D01*
X143875399Y-75983847D01*
X144082860Y-76064218D01*
X144300426Y-76104888D01*
X144356855Y-76131378D01*
X144393264Y-76181981D01*
X144400449Y-76243906D01*
X144376593Y-76301502D01*
X144318741Y-76378112D01*
X144219569Y-76577273D01*
X144158685Y-76791262D01*
X144138157Y-77012799D01*
X144158685Y-77234337D01*
X144219569Y-77448326D01*
X144318741Y-77647488D01*
X144452819Y-77825037D01*
X144617237Y-77974924D01*
X144806395Y-78092045D01*
X144806397Y-78092045D01*
X144806399Y-78092047D01*
X145013860Y-78172418D01*
X145232557Y-78213300D01*
X145455041Y-78213300D01*
X145455043Y-78213300D01*
X145673740Y-78172418D01*
X145881201Y-78092047D01*
X146070362Y-77974924D01*
X146210263Y-77847386D01*
X146263555Y-77818770D01*
X146324045Y-77818770D01*
X146377336Y-77847386D01*
X146495765Y-77955349D01*
X146517240Y-77974926D01*
X146706395Y-78092045D01*
X146706397Y-78092045D01*
X146706399Y-78092047D01*
X146913860Y-78172418D01*
X147132557Y-78213300D01*
X147355041Y-78213300D01*
X147355043Y-78213300D01*
X147573740Y-78172418D01*
X147781201Y-78092047D01*
X147970362Y-77974924D01*
X148134781Y-77825036D01*
X148257467Y-77662572D01*
X148301149Y-77626300D01*
X148356421Y-77613300D01*
X149001979Y-77613300D01*
X149057251Y-77626300D01*
X149100933Y-77662573D01*
X149223619Y-77825037D01*
X149388037Y-77974924D01*
X149577195Y-78092045D01*
X149577197Y-78092045D01*
X149577199Y-78092047D01*
X149784660Y-78172418D01*
X150003357Y-78213300D01*
X150225841Y-78213300D01*
X150225843Y-78213300D01*
X150444540Y-78172418D01*
X150652001Y-78092047D01*
X150841162Y-77974924D01*
X150981432Y-77847050D01*
X151034726Y-77818432D01*
X151095216Y-77818432D01*
X151148509Y-77847050D01*
X151288337Y-77974521D01*
X151477421Y-78091597D01*
X151684799Y-78171935D01*
X151764600Y-78186852D01*
X151764600Y-77262800D01*
X152264600Y-77262800D01*
X152264600Y-78186852D01*
X152344400Y-78171935D01*
X152551778Y-78091597D01*
X152740862Y-77974521D01*
X152905209Y-77824699D01*
X153039234Y-77647222D01*
X153138359Y-77448151D01*
X153191095Y-77262800D01*
X152264600Y-77262800D01*
X151764600Y-77262800D01*
X151764600Y-76886800D01*
X151781213Y-76824800D01*
X151826600Y-76779413D01*
X151888600Y-76762800D01*
X153191095Y-76762800D01*
X153138359Y-76577448D01*
X153039234Y-76378377D01*
X152905209Y-76200900D01*
X152740862Y-76051078D01*
X152551778Y-75934002D01*
X152344400Y-75853664D01*
X152215122Y-75829498D01*
X152158690Y-75803006D01*
X152122280Y-75752402D01*
X152115096Y-75690477D01*
X152138954Y-75632881D01*
X152209833Y-75539022D01*
X152308959Y-75339951D01*
X152361695Y-75154600D01*
X151059200Y-75154600D01*
X150997200Y-75137987D01*
X150951813Y-75092600D01*
X150935200Y-75030600D01*
X150935200Y-74778600D01*
X150951813Y-74716600D01*
X150997200Y-74671213D01*
X151059200Y-74654600D01*
X152361695Y-74654600D01*
X152308841Y-74468834D01*
X152306219Y-74412115D01*
X152329154Y-74360173D01*
X152372837Y-74323900D01*
X152428108Y-74310900D01*
X155670948Y-74310900D01*
X155718401Y-74320339D01*
X155758629Y-74347219D01*
X156459026Y-75047616D01*
X156488387Y-75094343D01*
X156489686Y-75098057D01*
X156489687Y-75098059D01*
X156545544Y-75257690D01*
X156635523Y-75400890D01*
X156755110Y-75520477D01*
X156898310Y-75610456D01*
X157057941Y-75666313D01*
X157226000Y-75685249D01*
X157394059Y-75666313D01*
X157553690Y-75610456D01*
X157696890Y-75520477D01*
X157816477Y-75400890D01*
X157895507Y-75275114D01*
X157941741Y-75231894D01*
X158003283Y-75217119D01*
X158064100Y-75234640D01*
X158108348Y-75279893D01*
X158124500Y-75341088D01*
X158124500Y-75495124D01*
X158105494Y-75561096D01*
X158069544Y-75618309D01*
X158013686Y-75777943D01*
X157994750Y-75946000D01*
X158013686Y-76114056D01*
X158013686Y-76114058D01*
X158013687Y-76114059D01*
X158069544Y-76273690D01*
X158159523Y-76416890D01*
X158279110Y-76536477D01*
X158422310Y-76626456D01*
X158581941Y-76682313D01*
X158750000Y-76701249D01*
X158918059Y-76682313D01*
X159077690Y-76626456D01*
X159220890Y-76536477D01*
X159340477Y-76416890D01*
X159430456Y-76273690D01*
X159486313Y-76114059D01*
X159505249Y-75946000D01*
X159486313Y-75777941D01*
X159430456Y-75618310D01*
X159394505Y-75561095D01*
X159375500Y-75495124D01*
X159375500Y-71202744D01*
X159377764Y-71182236D01*
X159375561Y-71112113D01*
X159375500Y-71108219D01*
X159375500Y-71080654D01*
X159375500Y-71080650D01*
X159374997Y-71076670D01*
X159374081Y-71065028D01*
X159373493Y-71046310D01*
X159372710Y-71021373D01*
X159367118Y-71002126D01*
X159363174Y-70983085D01*
X159360664Y-70963208D01*
X159344579Y-70922583D01*
X159340808Y-70911568D01*
X159328618Y-70869610D01*
X159318414Y-70852355D01*
X159309861Y-70834895D01*
X159302486Y-70816269D01*
X159302486Y-70816268D01*
X159276808Y-70780925D01*
X159270401Y-70771171D01*
X159248169Y-70733579D01*
X159234006Y-70719416D01*
X159221367Y-70704617D01*
X159209595Y-70688413D01*
X159175941Y-70660573D01*
X159167299Y-70652709D01*
X157472802Y-68958211D01*
X157459906Y-68942113D01*
X157408775Y-68894098D01*
X157405978Y-68891387D01*
X157386470Y-68871879D01*
X157383290Y-68869412D01*
X157374424Y-68861839D01*
X157342582Y-68831938D01*
X157325024Y-68822285D01*
X157308768Y-68811607D01*
X157296998Y-68802478D01*
X157259510Y-68754461D01*
X157249413Y-68694383D01*
X157269146Y-68636747D01*
X157313946Y-68595465D01*
X157373000Y-68580500D01*
X160667500Y-68580500D01*
X160729500Y-68597113D01*
X160774887Y-68642500D01*
X160791500Y-68704500D01*
X160791500Y-81155500D01*
X160774887Y-81217500D01*
X160729500Y-81262887D01*
X160667500Y-81279500D01*
X156991346Y-81279500D01*
X156931230Y-81263953D01*
X156886188Y-81221210D01*
X156867516Y-81161990D01*
X156879896Y-81101142D01*
X156920221Y-81053926D01*
X157024620Y-80980826D01*
X157180826Y-80824620D01*
X157307534Y-80643662D01*
X157400894Y-80443450D01*
X157458070Y-80230068D01*
X157477323Y-80010000D01*
X157458070Y-79789932D01*
X157400894Y-79576550D01*
X157307534Y-79376339D01*
X157180826Y-79195380D01*
X157024620Y-79039174D01*
X156843662Y-78912466D01*
X156797223Y-78890811D01*
X156643451Y-78819106D01*
X156430065Y-78761929D01*
X156209999Y-78742676D01*
X155989934Y-78761929D01*
X155776548Y-78819106D01*
X155576338Y-78912466D01*
X155395379Y-79039174D01*
X155239174Y-79195379D01*
X155112466Y-79376338D01*
X155052382Y-79505189D01*
X155006625Y-79557365D01*
X154940000Y-79576784D01*
X154873375Y-79557365D01*
X154827618Y-79505189D01*
X154810744Y-79469004D01*
X154767534Y-79376339D01*
X154640826Y-79195380D01*
X154484620Y-79039174D01*
X154303662Y-78912466D01*
X154257223Y-78890811D01*
X154103451Y-78819106D01*
X153890065Y-78761929D01*
X153669999Y-78742676D01*
X153449934Y-78761929D01*
X153236548Y-78819106D01*
X153036338Y-78912466D01*
X152855379Y-79039174D01*
X152699174Y-79195379D01*
X152617575Y-79311916D01*
X152570358Y-79352243D01*
X152509510Y-79364623D01*
X152450290Y-79345951D01*
X152407547Y-79300909D01*
X152392000Y-79240793D01*
X152392000Y-79200176D01*
X152385597Y-79140624D01*
X152335352Y-79005910D01*
X152249188Y-78890811D01*
X152134089Y-78804647D01*
X151999375Y-78754402D01*
X151939824Y-78748000D01*
X151380000Y-78748000D01*
X151380000Y-80136000D01*
X151363387Y-80198000D01*
X151318000Y-80243387D01*
X151256000Y-80260000D01*
X151004000Y-80260000D01*
X150942000Y-80243387D01*
X150896613Y-80198000D01*
X150880000Y-80136000D01*
X150880000Y-78748000D01*
X150320176Y-78748000D01*
X150260624Y-78754402D01*
X150125910Y-78804647D01*
X150010811Y-78890811D01*
X149924647Y-79005910D01*
X149874402Y-79140624D01*
X149868000Y-79200176D01*
X149868000Y-79240793D01*
X149852453Y-79300909D01*
X149809710Y-79345951D01*
X149750490Y-79364623D01*
X149689642Y-79352243D01*
X149642425Y-79311916D01*
X149560825Y-79195379D01*
X149404620Y-79039174D01*
X149223662Y-78912466D01*
X149023451Y-78819106D01*
X148810065Y-78761929D01*
X148589999Y-78742676D01*
X148369934Y-78761929D01*
X148156548Y-78819106D01*
X147956338Y-78912466D01*
X147775379Y-79039174D01*
X147619174Y-79195379D01*
X147492466Y-79376338D01*
X147432382Y-79505189D01*
X147386625Y-79557365D01*
X147320000Y-79576784D01*
X147253375Y-79557365D01*
X147207618Y-79505189D01*
X147190744Y-79469004D01*
X147147534Y-79376339D01*
X147020826Y-79195380D01*
X146864620Y-79039174D01*
X146683662Y-78912466D01*
X146637223Y-78890811D01*
X146483451Y-78819106D01*
X146270065Y-78761929D01*
X146049999Y-78742676D01*
X145829934Y-78761929D01*
X145616548Y-78819106D01*
X145416338Y-78912466D01*
X145235379Y-79039174D01*
X145079174Y-79195379D01*
X144952466Y-79376338D01*
X144892382Y-79505189D01*
X144846625Y-79557365D01*
X144780000Y-79576784D01*
X144713375Y-79557365D01*
X144667618Y-79505189D01*
X144650744Y-79469004D01*
X144607534Y-79376339D01*
X144480826Y-79195380D01*
X144324620Y-79039174D01*
X144143662Y-78912466D01*
X144097223Y-78890811D01*
X143943451Y-78819106D01*
X143730065Y-78761929D01*
X143509999Y-78742676D01*
X143289934Y-78761929D01*
X143076548Y-78819106D01*
X142876338Y-78912466D01*
X142695379Y-79039174D01*
X142539174Y-79195379D01*
X142412466Y-79376338D01*
X142352382Y-79505189D01*
X142306625Y-79557365D01*
X142240000Y-79576784D01*
X142173375Y-79557365D01*
X142127618Y-79505189D01*
X142110744Y-79469004D01*
X142067534Y-79376339D01*
X141940826Y-79195380D01*
X141784620Y-79039174D01*
X141603662Y-78912466D01*
X141557223Y-78890811D01*
X141403451Y-78819106D01*
X141190065Y-78761929D01*
X140969999Y-78742676D01*
X140749934Y-78761929D01*
X140536548Y-78819106D01*
X140336338Y-78912466D01*
X140155379Y-79039174D01*
X139999174Y-79195379D01*
X139872466Y-79376338D01*
X139779106Y-79576548D01*
X139721929Y-79789934D01*
X139702676Y-80010000D01*
X139721929Y-80230065D01*
X139721930Y-80230068D01*
X139779106Y-80443450D01*
X139872466Y-80643662D01*
X139999174Y-80824620D01*
X140155380Y-80980826D01*
X140259778Y-81053926D01*
X140300104Y-81101142D01*
X140312484Y-81161990D01*
X140293812Y-81221210D01*
X140248770Y-81263953D01*
X140188654Y-81279500D01*
X136512500Y-81279500D01*
X136450500Y-81262887D01*
X136405113Y-81217500D01*
X136388500Y-81155500D01*
X136388500Y-68704500D01*
X136405113Y-68642500D01*
X136450500Y-68597113D01*
X136512500Y-68580500D01*
X148192318Y-68580500D01*
X148252057Y-68595839D01*
G37*
%TD.AperFunction*%
M02*
