%TF.GenerationSoftware,KiCad,Pcbnew,7.0.1-3b83917a11~172~ubuntu20.04.1*%
%TF.CreationDate,2023-03-30T19:27:03-04:00*%
%TF.ProjectId,I2C-ToF-Companion,4932432d-546f-4462-9d43-6f6d70616e69,rev?*%
%TF.SameCoordinates,Original*%
%TF.FileFunction,Copper,L2,Bot*%
%TF.FilePolarity,Positive*%
%FSLAX46Y46*%
G04 Gerber Fmt 4.6, Leading zero omitted, Abs format (unit mm)*
G04 Created by KiCad (PCBNEW 7.0.1-3b83917a11~172~ubuntu20.04.1) date 2023-03-30 19:27:03*
%MOMM*%
%LPD*%
G01*
G04 APERTURE LIST*
%TA.AperFunction,NonConductor*%
%ADD10C,0.200000*%
%TD*%
%TA.AperFunction,WasherPad*%
%ADD11C,2.400000*%
%TD*%
%TA.AperFunction,ComponentPad*%
%ADD12C,1.400000*%
%TD*%
%TA.AperFunction,ComponentPad*%
%ADD13O,1.400000X1.400000*%
%TD*%
%TA.AperFunction,ComponentPad*%
%ADD14C,1.524000*%
%TD*%
%TA.AperFunction,ComponentPad*%
%ADD15R,1.524000X1.524000*%
%TD*%
%TA.AperFunction,ViaPad*%
%ADD16C,0.500000*%
%TD*%
%TA.AperFunction,Conductor*%
%ADD17C,0.200000*%
%TD*%
%TA.AperFunction,Conductor*%
%ADD18C,0.250000*%
%TD*%
G04 APERTURE END LIST*
D10*
X151053800Y-75209400D02*
X151790400Y-76962000D01*
X151384000Y-75057000D02*
X152019000Y-76581000D01*
X151180800Y-74980800D02*
X151866600Y-76682600D01*
D11*
X154990800Y-71069200D03*
D12*
X145343800Y-77012800D03*
D13*
X147243800Y-77012800D03*
D14*
X156210000Y-80010000D03*
X153670000Y-80010000D03*
D15*
X151130000Y-80010000D03*
D14*
X148590000Y-80010000D03*
X146050000Y-80010000D03*
X143510000Y-80010000D03*
X140970000Y-80010000D03*
D12*
X144412800Y-74904600D03*
D13*
X146312800Y-74904600D03*
D12*
X149285200Y-74904600D03*
D13*
X151185200Y-74904600D03*
D11*
X142189200Y-71069200D03*
D12*
X150114600Y-77012800D03*
D13*
X152014600Y-77012800D03*
D16*
X143205200Y-78054200D03*
X144526000Y-71374000D03*
X155143200Y-78486000D03*
X144526000Y-69850000D03*
X157327600Y-75946000D03*
X139598400Y-74930000D03*
X139623800Y-73939400D03*
X157886400Y-75260200D03*
D17*
X146312800Y-74904600D02*
X149285200Y-74904600D01*
X147243800Y-77012800D02*
X150114600Y-77012800D01*
D18*
X147066000Y-70866000D02*
X148590000Y-69342000D01*
X158750000Y-75946000D02*
X158750000Y-71120000D01*
X145034000Y-70866000D02*
X147066000Y-70866000D01*
X158750000Y-75946000D02*
X156210000Y-78486000D01*
X158750000Y-71120000D02*
X156972000Y-69342000D01*
X156210000Y-78486000D02*
X155143200Y-78486000D01*
X145034000Y-70866000D02*
X144526000Y-71374000D01*
X156972000Y-69342000D02*
X148590000Y-69342000D01*
D17*
X141224000Y-73329800D02*
X154711400Y-73329800D01*
X154711400Y-73329800D02*
X157327600Y-75946000D01*
X139582582Y-74971218D02*
X141224000Y-73329800D01*
X157886400Y-74066400D02*
X156718000Y-72898000D01*
X140665200Y-72898000D02*
X139623800Y-73939400D01*
X157886400Y-75260200D02*
X157886400Y-74066400D01*
X156718000Y-72898000D02*
X140665200Y-72898000D01*
%TA.AperFunction,Conductor*%
G36*
X148252057Y-68595839D02*
G01*
X148297017Y-68638061D01*
X148316074Y-68696721D01*
X148304513Y-68757305D01*
X148265194Y-68804823D01*
X148260726Y-68808070D01*
X148250921Y-68815193D01*
X148241168Y-68821599D01*
X148203579Y-68843829D01*
X148189410Y-68857998D01*
X148174622Y-68870628D01*
X148158413Y-68882405D01*
X148130572Y-68916058D01*
X148122711Y-68924696D01*
X146843228Y-70204181D01*
X146803000Y-70231061D01*
X146755547Y-70240500D01*
X145116740Y-70240500D01*
X145096236Y-70238236D01*
X145026144Y-70240439D01*
X145022250Y-70240500D01*
X144994648Y-70240500D01*
X144990653Y-70241004D01*
X144979029Y-70241918D01*
X144935368Y-70243290D01*
X144916129Y-70248880D01*
X144897080Y-70252825D01*
X144877208Y-70255335D01*
X144836593Y-70271415D01*
X144825549Y-70275196D01*
X144783611Y-70287382D01*
X144766364Y-70297581D01*
X144748900Y-70306136D01*
X144730267Y-70313514D01*
X144694926Y-70339189D01*
X144685168Y-70345599D01*
X144647579Y-70367829D01*
X144633410Y-70381998D01*
X144618622Y-70394628D01*
X144602413Y-70406405D01*
X144574572Y-70440058D01*
X144566711Y-70448696D01*
X144408381Y-70607026D01*
X144361655Y-70636386D01*
X144198312Y-70693542D01*
X144157135Y-70719416D01*
X144055110Y-70783523D01*
X144055108Y-70783524D01*
X144043280Y-70790957D01*
X144041679Y-70788410D01*
X144004880Y-70809422D01*
X143939584Y-70808500D01*
X143883812Y-70774533D01*
X143853031Y-70716943D01*
X143818708Y-70566563D01*
X143725593Y-70329312D01*
X143712212Y-70306136D01*
X143598161Y-70108592D01*
X143598159Y-70108588D01*
X143439250Y-69909323D01*
X143252417Y-69735968D01*
X143041834Y-69592395D01*
X142812204Y-69481811D01*
X142568658Y-69406687D01*
X142316635Y-69368700D01*
X142061765Y-69368700D01*
X141809742Y-69406687D01*
X141566196Y-69481811D01*
X141336566Y-69592395D01*
X141231274Y-69664181D01*
X141125981Y-69735969D01*
X140939150Y-69909323D01*
X140780238Y-70108592D01*
X140652808Y-70329308D01*
X140559692Y-70566562D01*
X140502977Y-70815045D01*
X140483931Y-71069200D01*
X140502977Y-71323354D01*
X140559692Y-71571837D01*
X140652808Y-71809091D01*
X140742519Y-71964475D01*
X140780241Y-72029812D01*
X140833174Y-72096188D01*
X140859447Y-72159616D01*
X140847947Y-72227301D01*
X140802199Y-72278494D01*
X140736227Y-72297500D01*
X140712687Y-72297500D01*
X140696502Y-72296439D01*
X140692576Y-72295922D01*
X140665199Y-72292317D01*
X140629941Y-72296959D01*
X140625839Y-72297500D01*
X140508437Y-72312956D01*
X140362361Y-72373462D01*
X140312182Y-72411965D01*
X140236918Y-72469718D01*
X140236916Y-72469719D01*
X140236915Y-72469721D01*
X140217690Y-72494774D01*
X140206998Y-72506965D01*
X139548559Y-73165404D01*
X139514680Y-73189443D01*
X139474763Y-73200943D01*
X139455744Y-73203086D01*
X139455741Y-73203086D01*
X139455741Y-73203087D01*
X139296110Y-73258944D01*
X139296108Y-73258944D01*
X139296108Y-73258945D01*
X139152908Y-73348924D01*
X139033324Y-73468508D01*
X138943344Y-73611710D01*
X138887486Y-73771343D01*
X138868550Y-73939399D01*
X138887486Y-74107456D01*
X138943344Y-74267090D01*
X138994508Y-74348516D01*
X139013514Y-74414488D01*
X138994508Y-74480460D01*
X138917944Y-74602309D01*
X138862086Y-74761943D01*
X138843150Y-74929999D01*
X138862086Y-75098056D01*
X138862086Y-75098058D01*
X138862087Y-75098059D01*
X138917944Y-75257690D01*
X139007923Y-75400890D01*
X139127510Y-75520477D01*
X139270710Y-75610456D01*
X139430341Y-75666313D01*
X139598400Y-75685249D01*
X139766459Y-75666313D01*
X139926090Y-75610456D01*
X140069290Y-75520477D01*
X140188877Y-75400890D01*
X140278856Y-75257690D01*
X140334713Y-75098059D01*
X140334713Y-75098057D01*
X140339327Y-75084872D01*
X140340116Y-75085148D01*
X140345128Y-75067748D01*
X140369167Y-75033866D01*
X141436415Y-73966619D01*
X141476644Y-73939739D01*
X141524097Y-73930300D01*
X143395178Y-73930300D01*
X143460456Y-73948873D01*
X143506178Y-73999028D01*
X143518649Y-74065741D01*
X143494132Y-74129026D01*
X143387742Y-74269908D01*
X143288569Y-74469073D01*
X143227685Y-74683062D01*
X143207157Y-74904599D01*
X143227685Y-75126137D01*
X143288569Y-75340126D01*
X143387741Y-75539288D01*
X143521819Y-75716837D01*
X143686237Y-75866724D01*
X143875395Y-75983845D01*
X143875397Y-75983845D01*
X143875399Y-75983847D01*
X144082860Y-76064218D01*
X144300426Y-76104888D01*
X144356855Y-76131378D01*
X144393264Y-76181981D01*
X144400449Y-76243906D01*
X144376593Y-76301502D01*
X144318741Y-76378112D01*
X144219569Y-76577273D01*
X144158685Y-76791262D01*
X144138157Y-77012799D01*
X144158685Y-77234337D01*
X144219569Y-77448326D01*
X144318741Y-77647488D01*
X144452819Y-77825037D01*
X144617237Y-77974924D01*
X144806395Y-78092045D01*
X144806397Y-78092045D01*
X144806399Y-78092047D01*
X145013860Y-78172418D01*
X145232557Y-78213300D01*
X145455041Y-78213300D01*
X145455043Y-78213300D01*
X145673740Y-78172418D01*
X145881201Y-78092047D01*
X146070362Y-77974924D01*
X146210263Y-77847386D01*
X146263555Y-77818770D01*
X146324045Y-77818770D01*
X146377336Y-77847386D01*
X146430141Y-77895524D01*
X146517240Y-77974926D01*
X146706395Y-78092045D01*
X146706397Y-78092045D01*
X146706399Y-78092047D01*
X146913860Y-78172418D01*
X147132557Y-78213300D01*
X147355041Y-78213300D01*
X147355043Y-78213300D01*
X147573740Y-78172418D01*
X147781201Y-78092047D01*
X147970362Y-77974924D01*
X147970804Y-77974521D01*
X148134780Y-77825037D01*
X148135427Y-77824181D01*
X148257467Y-77662572D01*
X148301149Y-77626300D01*
X148356421Y-77613300D01*
X149001979Y-77613300D01*
X149057251Y-77626300D01*
X149100933Y-77662573D01*
X149223619Y-77825037D01*
X149388037Y-77974924D01*
X149577195Y-78092045D01*
X149577197Y-78092045D01*
X149577199Y-78092047D01*
X149784660Y-78172418D01*
X150003357Y-78213300D01*
X150225841Y-78213300D01*
X150225843Y-78213300D01*
X150444540Y-78172418D01*
X150652001Y-78092047D01*
X150841162Y-77974924D01*
X150841604Y-77974521D01*
X150981433Y-77847050D01*
X151034726Y-77818432D01*
X151095216Y-77818432D01*
X151148509Y-77847050D01*
X151288337Y-77974521D01*
X151477421Y-78091597D01*
X151684799Y-78171935D01*
X151764600Y-78186852D01*
X151764600Y-77686002D01*
X151781102Y-77624194D01*
X151826216Y-77578838D01*
X151857861Y-77570206D01*
X151856818Y-77566390D01*
X151973970Y-77534348D01*
X152025077Y-77520370D01*
X152078046Y-77489421D01*
X152140119Y-77472488D01*
X152202322Y-77488940D01*
X152247907Y-77534348D01*
X152264600Y-77596487D01*
X152264600Y-78186852D01*
X152344400Y-78171935D01*
X152551778Y-78091597D01*
X152740862Y-77974521D01*
X152905209Y-77824699D01*
X153039234Y-77647222D01*
X153138359Y-77448151D01*
X153191095Y-77262800D01*
X152493034Y-77262800D01*
X152438335Y-77250084D01*
X152394855Y-77214543D01*
X152371512Y-77163467D01*
X152373092Y-77107335D01*
X152375615Y-77097723D01*
X152407688Y-77041700D01*
X152500290Y-76948710D01*
X152571356Y-76825022D01*
X152616758Y-76779478D01*
X152678871Y-76762800D01*
X153191095Y-76762800D01*
X153138359Y-76577448D01*
X153039234Y-76378377D01*
X152905209Y-76200900D01*
X152740862Y-76051078D01*
X152551779Y-75934002D01*
X152420059Y-75882974D01*
X152378283Y-75856126D01*
X152350392Y-75815041D01*
X152245522Y-75563353D01*
X152236055Y-75511497D01*
X152248985Y-75460391D01*
X152308961Y-75339945D01*
X152361695Y-75154600D01*
X152157875Y-75154600D01*
X152110502Y-75145194D01*
X152070316Y-75118403D01*
X152043414Y-75078294D01*
X151960032Y-74878176D01*
X151938414Y-74826292D01*
X151929454Y-74766639D01*
X151949702Y-74709817D01*
X151994366Y-74669272D01*
X152052876Y-74654600D01*
X152361695Y-74654600D01*
X152308959Y-74469248D01*
X152209834Y-74270177D01*
X152103242Y-74129027D01*
X152078725Y-74065741D01*
X152091196Y-73999028D01*
X152136918Y-73948873D01*
X152202196Y-73930300D01*
X154411303Y-73930300D01*
X154458756Y-73939739D01*
X154498984Y-73966619D01*
X156553604Y-76021239D01*
X156577643Y-76055118D01*
X156589143Y-76095035D01*
X156591286Y-76114056D01*
X156591286Y-76114058D01*
X156591287Y-76114059D01*
X156647144Y-76273690D01*
X156726070Y-76399300D01*
X156737124Y-76416891D01*
X156856710Y-76536477D01*
X156981890Y-76615134D01*
X157020912Y-76654155D01*
X157039138Y-76706244D01*
X157032960Y-76761082D01*
X157003599Y-76807808D01*
X155987228Y-77824181D01*
X155947000Y-77851061D01*
X155899547Y-77860500D01*
X155594076Y-77860500D01*
X155528104Y-77841494D01*
X155470890Y-77805544D01*
X155311256Y-77749686D01*
X155143200Y-77730750D01*
X154975143Y-77749686D01*
X154815510Y-77805544D01*
X154672308Y-77895524D01*
X154552724Y-78015108D01*
X154462744Y-78158310D01*
X154406886Y-78317943D01*
X154387950Y-78486000D01*
X154406886Y-78654056D01*
X154437909Y-78742716D01*
X154443786Y-78800009D01*
X154423146Y-78853777D01*
X154380442Y-78892421D01*
X154324885Y-78907605D01*
X154268462Y-78896052D01*
X154103451Y-78819106D01*
X153890065Y-78761929D01*
X153669999Y-78742676D01*
X153449934Y-78761929D01*
X153236548Y-78819106D01*
X153036338Y-78912466D01*
X152855379Y-79039174D01*
X152699174Y-79195379D01*
X152617575Y-79311916D01*
X152570358Y-79352243D01*
X152509510Y-79364623D01*
X152450290Y-79345951D01*
X152407547Y-79300909D01*
X152392000Y-79240793D01*
X152392000Y-79200176D01*
X152385597Y-79140624D01*
X152335352Y-79005910D01*
X152249188Y-78890811D01*
X152134089Y-78804647D01*
X151999375Y-78754402D01*
X151939824Y-78748000D01*
X151380000Y-78748000D01*
X151380000Y-80136000D01*
X151363387Y-80198000D01*
X151318000Y-80243387D01*
X151256000Y-80260000D01*
X151004000Y-80260000D01*
X150942000Y-80243387D01*
X150896613Y-80198000D01*
X150880000Y-80136000D01*
X150880000Y-78748000D01*
X150320176Y-78748000D01*
X150260624Y-78754402D01*
X150125910Y-78804647D01*
X150010811Y-78890811D01*
X149924647Y-79005910D01*
X149874402Y-79140624D01*
X149868000Y-79200176D01*
X149868000Y-79240793D01*
X149852453Y-79300909D01*
X149809710Y-79345951D01*
X149750490Y-79364623D01*
X149689642Y-79352243D01*
X149642425Y-79311916D01*
X149595776Y-79245294D01*
X149560826Y-79195380D01*
X149404620Y-79039174D01*
X149223662Y-78912466D01*
X149097803Y-78853777D01*
X149023451Y-78819106D01*
X148810065Y-78761929D01*
X148589999Y-78742676D01*
X148369934Y-78761929D01*
X148156548Y-78819106D01*
X147956338Y-78912466D01*
X147775379Y-79039174D01*
X147619174Y-79195379D01*
X147492466Y-79376338D01*
X147432382Y-79505189D01*
X147386625Y-79557365D01*
X147320000Y-79576784D01*
X147253375Y-79557365D01*
X147207618Y-79505189D01*
X147159041Y-79401016D01*
X147147534Y-79376339D01*
X147020826Y-79195380D01*
X146864620Y-79039174D01*
X146683662Y-78912466D01*
X146557803Y-78853777D01*
X146483451Y-78819106D01*
X146270065Y-78761929D01*
X146049999Y-78742676D01*
X145829934Y-78761929D01*
X145616548Y-78819106D01*
X145416338Y-78912466D01*
X145235379Y-79039174D01*
X145079174Y-79195379D01*
X144952466Y-79376338D01*
X144892382Y-79505189D01*
X144846625Y-79557365D01*
X144780000Y-79576784D01*
X144713375Y-79557365D01*
X144667618Y-79505189D01*
X144619041Y-79401016D01*
X144607534Y-79376339D01*
X144480826Y-79195380D01*
X144324620Y-79039174D01*
X144143662Y-78912466D01*
X144017803Y-78853777D01*
X143943451Y-78819106D01*
X143730065Y-78761929D01*
X143509999Y-78742676D01*
X143289934Y-78761929D01*
X143076548Y-78819106D01*
X142876338Y-78912466D01*
X142695379Y-79039174D01*
X142539174Y-79195379D01*
X142412466Y-79376338D01*
X142352382Y-79505189D01*
X142306625Y-79557365D01*
X142240000Y-79576784D01*
X142173375Y-79557365D01*
X142127618Y-79505189D01*
X142079041Y-79401016D01*
X142067534Y-79376339D01*
X141940826Y-79195380D01*
X141784620Y-79039174D01*
X141603662Y-78912466D01*
X141477803Y-78853777D01*
X141403451Y-78819106D01*
X141190065Y-78761929D01*
X140969999Y-78742676D01*
X140749934Y-78761929D01*
X140536548Y-78819106D01*
X140336338Y-78912466D01*
X140155379Y-79039174D01*
X139999174Y-79195379D01*
X139872466Y-79376338D01*
X139779106Y-79576548D01*
X139721929Y-79789934D01*
X139702676Y-80010000D01*
X139721929Y-80230065D01*
X139721930Y-80230068D01*
X139779106Y-80443450D01*
X139872466Y-80643662D01*
X139999174Y-80824620D01*
X140155380Y-80980826D01*
X140259778Y-81053926D01*
X140300104Y-81101142D01*
X140312484Y-81161990D01*
X140293812Y-81221210D01*
X140248770Y-81263953D01*
X140188654Y-81279500D01*
X137706300Y-81279500D01*
X137644300Y-81262887D01*
X137598913Y-81217500D01*
X137582300Y-81155500D01*
X137582300Y-68704500D01*
X137598913Y-68642500D01*
X137644300Y-68597113D01*
X137706300Y-68580500D01*
X148192318Y-68580500D01*
X148252057Y-68595839D01*
G37*
%TD.AperFunction*%
M02*
