M48
; DRILL file {KiCad 7.0.1-3b83917a11~172~ubuntu20.04.1} date Thu 30 Mar 2023 07:27:13 PM EDT
; FORMAT={-:-/ absolute / metric / decimal}
; #@! TF.CreationDate,2023-03-30T19:27:13-04:00
; #@! TF.GenerationSoftware,Kicad,Pcbnew,7.0.1-3b83917a11~172~ubuntu20.04.1
; #@! TF.FileFunction,Plated,1,2,PTH
FMAT,2
METRIC
; #@! TA.AperFunction,Plated,PTH,ViaDrill
T1C0.400
; #@! TA.AperFunction,Plated,PTH,ComponentDrill
T2C0.700
; #@! TA.AperFunction,Plated,PTH,ComponentDrill
T3C0.762
%
G90
G05
T1
X139.598Y-74.93
X139.624Y-73.939
X143.205Y-78.054
X144.526Y-69.85
X144.526Y-71.374
X155.143Y-78.486
X157.328Y-75.946
X157.886Y-75.26
T2
X144.413Y-74.905
X145.344Y-77.013
X146.313Y-74.905
X147.244Y-77.013
X149.285Y-74.905
X150.115Y-77.013
X151.185Y-74.905
X152.015Y-77.013
T3
X140.97Y-80.01
X143.51Y-80.01
X146.05Y-80.01
X148.59Y-80.01
X151.13Y-80.01
X153.67Y-80.01
X156.21Y-80.01
T0
M30
