%TF.GenerationSoftware,KiCad,Pcbnew,7.0.1-3b83917a11~172~ubuntu20.04.1*%
%TF.CreationDate,2023-03-30T19:27:04-04:00*%
%TF.ProjectId,I2C-ToF-Companion,4932432d-546f-4462-9d43-6f6d70616e69,rev?*%
%TF.SameCoordinates,Original*%
%TF.FileFunction,Legend,Top*%
%TF.FilePolarity,Positive*%
%FSLAX46Y46*%
G04 Gerber Fmt 4.6, Leading zero omitted, Abs format (unit mm)*
G04 Created by KiCad (PCBNEW 7.0.1-3b83917a11~172~ubuntu20.04.1) date 2023-03-30 19:27:04*
%MOMM*%
%LPD*%
G01*
G04 APERTURE LIST*
G04 Aperture macros list*
%AMRoundRect*
0 Rectangle with rounded corners*
0 $1 Rounding radius*
0 $2 $3 $4 $5 $6 $7 $8 $9 X,Y pos of 4 corners*
0 Add a 4 corners polygon primitive as box body*
4,1,4,$2,$3,$4,$5,$6,$7,$8,$9,$2,$3,0*
0 Add four circle primitives for the rounded corners*
1,1,$1+$1,$2,$3*
1,1,$1+$1,$4,$5*
1,1,$1+$1,$6,$7*
1,1,$1+$1,$8,$9*
0 Add four rect primitives between the rounded corners*
20,1,$1+$1,$2,$3,$4,$5,0*
20,1,$1+$1,$4,$5,$6,$7,0*
20,1,$1+$1,$6,$7,$8,$9,0*
20,1,$1+$1,$8,$9,$2,$3,0*%
G04 Aperture macros list end*
%ADD10C,0.150000*%
%ADD11C,0.125000*%
%ADD12C,0.200000*%
%ADD13C,0.120000*%
%ADD14C,2.400000*%
%ADD15R,1.425000X0.300000*%
%ADD16C,1.400000*%
%ADD17O,1.400000X1.400000*%
%ADD18C,1.524000*%
%ADD19R,1.524000X1.524000*%
%ADD20RoundRect,0.150000X0.625000X-0.150000X0.625000X0.150000X-0.625000X0.150000X-0.625000X-0.150000X0*%
%ADD21RoundRect,0.250000X0.650000X-0.350000X0.650000X0.350000X-0.650000X0.350000X-0.650000X-0.350000X0*%
%ADD22RoundRect,0.150000X-0.625000X0.150000X-0.625000X-0.150000X0.625000X-0.150000X0.625000X0.150000X0*%
%ADD23RoundRect,0.250000X-0.650000X0.350000X-0.650000X-0.350000X0.650000X-0.350000X0.650000X0.350000X0*%
G04 APERTURE END LIST*
D10*
X151640000Y-80010000D02*
G75*
G03*
X151640000Y-80010000I-510000J0D01*
G01*
X156720000Y-80010000D02*
G75*
G03*
X156720000Y-80010000I-510000J0D01*
G01*
X146560000Y-80010000D02*
G75*
G03*
X146560000Y-80010000I-510000J0D01*
G01*
X144020000Y-80010000D02*
G75*
G03*
X144020000Y-80010000I-510000J0D01*
G01*
X149100000Y-80010000D02*
G75*
G03*
X149100000Y-80010000I-510000J0D01*
G01*
X141480000Y-80010000D02*
G75*
G03*
X141480000Y-80010000I-510000J0D01*
G01*
X154180000Y-80010000D02*
G75*
G03*
X154180000Y-80010000I-510000J0D01*
G01*
D11*
X150477058Y-69334409D02*
X150477058Y-68834409D01*
X150691344Y-68882028D02*
X150715153Y-68858219D01*
X150715153Y-68858219D02*
X150762772Y-68834409D01*
X150762772Y-68834409D02*
X150881820Y-68834409D01*
X150881820Y-68834409D02*
X150929439Y-68858219D01*
X150929439Y-68858219D02*
X150953248Y-68882028D01*
X150953248Y-68882028D02*
X150977058Y-68929647D01*
X150977058Y-68929647D02*
X150977058Y-68977266D01*
X150977058Y-68977266D02*
X150953248Y-69048695D01*
X150953248Y-69048695D02*
X150667534Y-69334409D01*
X150667534Y-69334409D02*
X150977058Y-69334409D01*
X151477057Y-69286790D02*
X151453248Y-69310600D01*
X151453248Y-69310600D02*
X151381819Y-69334409D01*
X151381819Y-69334409D02*
X151334200Y-69334409D01*
X151334200Y-69334409D02*
X151262772Y-69310600D01*
X151262772Y-69310600D02*
X151215153Y-69262980D01*
X151215153Y-69262980D02*
X151191343Y-69215361D01*
X151191343Y-69215361D02*
X151167534Y-69120123D01*
X151167534Y-69120123D02*
X151167534Y-69048695D01*
X151167534Y-69048695D02*
X151191343Y-68953457D01*
X151191343Y-68953457D02*
X151215153Y-68905838D01*
X151215153Y-68905838D02*
X151262772Y-68858219D01*
X151262772Y-68858219D02*
X151334200Y-68834409D01*
X151334200Y-68834409D02*
X151381819Y-68834409D01*
X151381819Y-68834409D02*
X151453248Y-68858219D01*
X151453248Y-68858219D02*
X151477057Y-68882028D01*
X152048486Y-69191552D02*
X152286581Y-69191552D01*
X152000867Y-69334409D02*
X152167533Y-68834409D01*
X152167533Y-68834409D02*
X152334200Y-69334409D01*
X152715152Y-69334409D02*
X152715152Y-68834409D01*
X152715152Y-69310600D02*
X152667533Y-69334409D01*
X152667533Y-69334409D02*
X152572295Y-69334409D01*
X152572295Y-69334409D02*
X152524676Y-69310600D01*
X152524676Y-69310600D02*
X152500866Y-69286790D01*
X152500866Y-69286790D02*
X152477057Y-69239171D01*
X152477057Y-69239171D02*
X152477057Y-69096314D01*
X152477057Y-69096314D02*
X152500866Y-69048695D01*
X152500866Y-69048695D02*
X152524676Y-69024885D01*
X152524676Y-69024885D02*
X152572295Y-69001076D01*
X152572295Y-69001076D02*
X152667533Y-69001076D01*
X152667533Y-69001076D02*
X152715152Y-69024885D01*
X153167533Y-69334409D02*
X153167533Y-68834409D01*
X153167533Y-69310600D02*
X153119914Y-69334409D01*
X153119914Y-69334409D02*
X153024676Y-69334409D01*
X153024676Y-69334409D02*
X152977057Y-69310600D01*
X152977057Y-69310600D02*
X152953247Y-69286790D01*
X152953247Y-69286790D02*
X152929438Y-69239171D01*
X152929438Y-69239171D02*
X152929438Y-69096314D01*
X152929438Y-69096314D02*
X152953247Y-69048695D01*
X152953247Y-69048695D02*
X152977057Y-69024885D01*
X152977057Y-69024885D02*
X153024676Y-69001076D01*
X153024676Y-69001076D02*
X153119914Y-69001076D01*
X153119914Y-69001076D02*
X153167533Y-69024885D01*
X153405628Y-69334409D02*
X153405628Y-69001076D01*
X153405628Y-69096314D02*
X153429438Y-69048695D01*
X153429438Y-69048695D02*
X153453247Y-69024885D01*
X153453247Y-69024885D02*
X153500866Y-69001076D01*
X153500866Y-69001076D02*
X153548485Y-69001076D01*
X153905628Y-69310600D02*
X153858009Y-69334409D01*
X153858009Y-69334409D02*
X153762771Y-69334409D01*
X153762771Y-69334409D02*
X153715152Y-69310600D01*
X153715152Y-69310600D02*
X153691343Y-69262980D01*
X153691343Y-69262980D02*
X153691343Y-69072504D01*
X153691343Y-69072504D02*
X153715152Y-69024885D01*
X153715152Y-69024885D02*
X153762771Y-69001076D01*
X153762771Y-69001076D02*
X153858009Y-69001076D01*
X153858009Y-69001076D02*
X153905628Y-69024885D01*
X153905628Y-69024885D02*
X153929438Y-69072504D01*
X153929438Y-69072504D02*
X153929438Y-69120123D01*
X153929438Y-69120123D02*
X153691343Y-69167742D01*
X154119914Y-69310600D02*
X154167533Y-69334409D01*
X154167533Y-69334409D02*
X154262771Y-69334409D01*
X154262771Y-69334409D02*
X154310390Y-69310600D01*
X154310390Y-69310600D02*
X154334199Y-69262980D01*
X154334199Y-69262980D02*
X154334199Y-69239171D01*
X154334199Y-69239171D02*
X154310390Y-69191552D01*
X154310390Y-69191552D02*
X154262771Y-69167742D01*
X154262771Y-69167742D02*
X154191342Y-69167742D01*
X154191342Y-69167742D02*
X154143723Y-69143933D01*
X154143723Y-69143933D02*
X154119914Y-69096314D01*
X154119914Y-69096314D02*
X154119914Y-69072504D01*
X154119914Y-69072504D02*
X154143723Y-69024885D01*
X154143723Y-69024885D02*
X154191342Y-69001076D01*
X154191342Y-69001076D02*
X154262771Y-69001076D01*
X154262771Y-69001076D02*
X154310390Y-69024885D01*
X154524676Y-69310600D02*
X154572295Y-69334409D01*
X154572295Y-69334409D02*
X154667533Y-69334409D01*
X154667533Y-69334409D02*
X154715152Y-69310600D01*
X154715152Y-69310600D02*
X154738961Y-69262980D01*
X154738961Y-69262980D02*
X154738961Y-69239171D01*
X154738961Y-69239171D02*
X154715152Y-69191552D01*
X154715152Y-69191552D02*
X154667533Y-69167742D01*
X154667533Y-69167742D02*
X154596104Y-69167742D01*
X154596104Y-69167742D02*
X154548485Y-69143933D01*
X154548485Y-69143933D02*
X154524676Y-69096314D01*
X154524676Y-69096314D02*
X154524676Y-69072504D01*
X154524676Y-69072504D02*
X154548485Y-69024885D01*
X154548485Y-69024885D02*
X154596104Y-69001076D01*
X154596104Y-69001076D02*
X154667533Y-69001076D01*
X154667533Y-69001076D02*
X154715152Y-69024885D01*
X155619913Y-69286790D02*
X155596104Y-69310600D01*
X155596104Y-69310600D02*
X155524675Y-69334409D01*
X155524675Y-69334409D02*
X155477056Y-69334409D01*
X155477056Y-69334409D02*
X155405628Y-69310600D01*
X155405628Y-69310600D02*
X155358009Y-69262980D01*
X155358009Y-69262980D02*
X155334199Y-69215361D01*
X155334199Y-69215361D02*
X155310390Y-69120123D01*
X155310390Y-69120123D02*
X155310390Y-69048695D01*
X155310390Y-69048695D02*
X155334199Y-68953457D01*
X155334199Y-68953457D02*
X155358009Y-68905838D01*
X155358009Y-68905838D02*
X155405628Y-68858219D01*
X155405628Y-68858219D02*
X155477056Y-68834409D01*
X155477056Y-68834409D02*
X155524675Y-68834409D01*
X155524675Y-68834409D02*
X155596104Y-68858219D01*
X155596104Y-68858219D02*
X155619913Y-68882028D01*
X155905628Y-69334409D02*
X155858009Y-69310600D01*
X155858009Y-69310600D02*
X155834199Y-69286790D01*
X155834199Y-69286790D02*
X155810390Y-69239171D01*
X155810390Y-69239171D02*
X155810390Y-69096314D01*
X155810390Y-69096314D02*
X155834199Y-69048695D01*
X155834199Y-69048695D02*
X155858009Y-69024885D01*
X155858009Y-69024885D02*
X155905628Y-69001076D01*
X155905628Y-69001076D02*
X155977056Y-69001076D01*
X155977056Y-69001076D02*
X156024675Y-69024885D01*
X156024675Y-69024885D02*
X156048485Y-69048695D01*
X156048485Y-69048695D02*
X156072294Y-69096314D01*
X156072294Y-69096314D02*
X156072294Y-69239171D01*
X156072294Y-69239171D02*
X156048485Y-69286790D01*
X156048485Y-69286790D02*
X156024675Y-69310600D01*
X156024675Y-69310600D02*
X155977056Y-69334409D01*
X155977056Y-69334409D02*
X155905628Y-69334409D01*
X156286580Y-69334409D02*
X156286580Y-69001076D01*
X156286580Y-69048695D02*
X156310390Y-69024885D01*
X156310390Y-69024885D02*
X156358009Y-69001076D01*
X156358009Y-69001076D02*
X156429437Y-69001076D01*
X156429437Y-69001076D02*
X156477056Y-69024885D01*
X156477056Y-69024885D02*
X156500866Y-69072504D01*
X156500866Y-69072504D02*
X156500866Y-69334409D01*
X156500866Y-69072504D02*
X156524675Y-69024885D01*
X156524675Y-69024885D02*
X156572294Y-69001076D01*
X156572294Y-69001076D02*
X156643723Y-69001076D01*
X156643723Y-69001076D02*
X156691342Y-69024885D01*
X156691342Y-69024885D02*
X156715152Y-69072504D01*
X156715152Y-69072504D02*
X156715152Y-69334409D01*
X156953247Y-69001076D02*
X156953247Y-69501076D01*
X156953247Y-69024885D02*
X157000866Y-69001076D01*
X157000866Y-69001076D02*
X157096104Y-69001076D01*
X157096104Y-69001076D02*
X157143723Y-69024885D01*
X157143723Y-69024885D02*
X157167533Y-69048695D01*
X157167533Y-69048695D02*
X157191342Y-69096314D01*
X157191342Y-69096314D02*
X157191342Y-69239171D01*
X157191342Y-69239171D02*
X157167533Y-69286790D01*
X157167533Y-69286790D02*
X157143723Y-69310600D01*
X157143723Y-69310600D02*
X157096104Y-69334409D01*
X157096104Y-69334409D02*
X157000866Y-69334409D01*
X157000866Y-69334409D02*
X156953247Y-69310600D01*
X157619914Y-69334409D02*
X157619914Y-69072504D01*
X157619914Y-69072504D02*
X157596104Y-69024885D01*
X157596104Y-69024885D02*
X157548485Y-69001076D01*
X157548485Y-69001076D02*
X157453247Y-69001076D01*
X157453247Y-69001076D02*
X157405628Y-69024885D01*
X157619914Y-69310600D02*
X157572295Y-69334409D01*
X157572295Y-69334409D02*
X157453247Y-69334409D01*
X157453247Y-69334409D02*
X157405628Y-69310600D01*
X157405628Y-69310600D02*
X157381819Y-69262980D01*
X157381819Y-69262980D02*
X157381819Y-69215361D01*
X157381819Y-69215361D02*
X157405628Y-69167742D01*
X157405628Y-69167742D02*
X157453247Y-69143933D01*
X157453247Y-69143933D02*
X157572295Y-69143933D01*
X157572295Y-69143933D02*
X157619914Y-69120123D01*
X157858009Y-69001076D02*
X157858009Y-69334409D01*
X157858009Y-69048695D02*
X157881819Y-69024885D01*
X157881819Y-69024885D02*
X157929438Y-69001076D01*
X157929438Y-69001076D02*
X158000866Y-69001076D01*
X158000866Y-69001076D02*
X158048485Y-69024885D01*
X158048485Y-69024885D02*
X158072295Y-69072504D01*
X158072295Y-69072504D02*
X158072295Y-69334409D01*
X158310390Y-69334409D02*
X158310390Y-69001076D01*
X158310390Y-68834409D02*
X158286581Y-68858219D01*
X158286581Y-68858219D02*
X158310390Y-68882028D01*
X158310390Y-68882028D02*
X158334200Y-68858219D01*
X158334200Y-68858219D02*
X158310390Y-68834409D01*
X158310390Y-68834409D02*
X158310390Y-68882028D01*
X158619914Y-69334409D02*
X158572295Y-69310600D01*
X158572295Y-69310600D02*
X158548485Y-69286790D01*
X158548485Y-69286790D02*
X158524676Y-69239171D01*
X158524676Y-69239171D02*
X158524676Y-69096314D01*
X158524676Y-69096314D02*
X158548485Y-69048695D01*
X158548485Y-69048695D02*
X158572295Y-69024885D01*
X158572295Y-69024885D02*
X158619914Y-69001076D01*
X158619914Y-69001076D02*
X158691342Y-69001076D01*
X158691342Y-69001076D02*
X158738961Y-69024885D01*
X158738961Y-69024885D02*
X158762771Y-69048695D01*
X158762771Y-69048695D02*
X158786580Y-69096314D01*
X158786580Y-69096314D02*
X158786580Y-69239171D01*
X158786580Y-69239171D02*
X158762771Y-69286790D01*
X158762771Y-69286790D02*
X158738961Y-69310600D01*
X158738961Y-69310600D02*
X158691342Y-69334409D01*
X158691342Y-69334409D02*
X158619914Y-69334409D01*
X159000866Y-69001076D02*
X159000866Y-69334409D01*
X159000866Y-69048695D02*
X159024676Y-69024885D01*
X159024676Y-69024885D02*
X159072295Y-69001076D01*
X159072295Y-69001076D02*
X159143723Y-69001076D01*
X159143723Y-69001076D02*
X159191342Y-69024885D01*
X159191342Y-69024885D02*
X159215152Y-69072504D01*
X159215152Y-69072504D02*
X159215152Y-69334409D01*
X157834201Y-69811076D02*
X157953249Y-70144409D01*
X157953249Y-70144409D02*
X158072296Y-69811076D01*
X158524677Y-70144409D02*
X158238963Y-70144409D01*
X158381820Y-70144409D02*
X158381820Y-69644409D01*
X158381820Y-69644409D02*
X158334201Y-69715838D01*
X158334201Y-69715838D02*
X158286582Y-69763457D01*
X158286582Y-69763457D02*
X158238963Y-69787266D01*
X158738962Y-70096790D02*
X158762772Y-70120600D01*
X158762772Y-70120600D02*
X158738962Y-70144409D01*
X158738962Y-70144409D02*
X158715153Y-70120600D01*
X158715153Y-70120600D02*
X158738962Y-70096790D01*
X158738962Y-70096790D02*
X158738962Y-70144409D01*
X159072295Y-69644409D02*
X159119914Y-69644409D01*
X159119914Y-69644409D02*
X159167533Y-69668219D01*
X159167533Y-69668219D02*
X159191343Y-69692028D01*
X159191343Y-69692028D02*
X159215152Y-69739647D01*
X159215152Y-69739647D02*
X159238962Y-69834885D01*
X159238962Y-69834885D02*
X159238962Y-69953933D01*
X159238962Y-69953933D02*
X159215152Y-70049171D01*
X159215152Y-70049171D02*
X159191343Y-70096790D01*
X159191343Y-70096790D02*
X159167533Y-70120600D01*
X159167533Y-70120600D02*
X159119914Y-70144409D01*
X159119914Y-70144409D02*
X159072295Y-70144409D01*
X159072295Y-70144409D02*
X159024676Y-70120600D01*
X159024676Y-70120600D02*
X159000867Y-70096790D01*
X159000867Y-70096790D02*
X158977057Y-70049171D01*
X158977057Y-70049171D02*
X158953248Y-69953933D01*
X158953248Y-69953933D02*
X158953248Y-69834885D01*
X158953248Y-69834885D02*
X158977057Y-69739647D01*
X158977057Y-69739647D02*
X159000867Y-69692028D01*
X159000867Y-69692028D02*
X159024676Y-69668219D01*
X159024676Y-69668219D02*
X159072295Y-69644409D01*
D10*
X153213571Y-77352814D02*
X153213571Y-76602814D01*
X153213571Y-76959957D02*
X153642142Y-76959957D01*
X153642142Y-77352814D02*
X153642142Y-76602814D01*
X154249285Y-76959957D02*
X154356428Y-76995671D01*
X154356428Y-76995671D02*
X154392142Y-77031385D01*
X154392142Y-77031385D02*
X154427856Y-77102814D01*
X154427856Y-77102814D02*
X154427856Y-77209957D01*
X154427856Y-77209957D02*
X154392142Y-77281385D01*
X154392142Y-77281385D02*
X154356428Y-77317100D01*
X154356428Y-77317100D02*
X154284999Y-77352814D01*
X154284999Y-77352814D02*
X153999285Y-77352814D01*
X153999285Y-77352814D02*
X153999285Y-76602814D01*
X153999285Y-76602814D02*
X154249285Y-76602814D01*
X154249285Y-76602814D02*
X154320714Y-76638528D01*
X154320714Y-76638528D02*
X154356428Y-76674242D01*
X154356428Y-76674242D02*
X154392142Y-76745671D01*
X154392142Y-76745671D02*
X154392142Y-76817100D01*
X154392142Y-76817100D02*
X154356428Y-76888528D01*
X154356428Y-76888528D02*
X154320714Y-76924242D01*
X154320714Y-76924242D02*
X154249285Y-76959957D01*
X154249285Y-76959957D02*
X153999285Y-76959957D01*
X142775714Y-75270014D02*
X142418571Y-75270014D01*
X142418571Y-75270014D02*
X142418571Y-74520014D01*
X142918571Y-74520014D02*
X143347143Y-74520014D01*
X143132857Y-75270014D02*
X143132857Y-74520014D01*
X143436114Y-77378214D02*
X143078971Y-77378214D01*
X143078971Y-77378214D02*
X143078971Y-76628214D01*
X143936114Y-76985357D02*
X144043257Y-77021071D01*
X144043257Y-77021071D02*
X144078971Y-77056785D01*
X144078971Y-77056785D02*
X144114685Y-77128214D01*
X144114685Y-77128214D02*
X144114685Y-77235357D01*
X144114685Y-77235357D02*
X144078971Y-77306785D01*
X144078971Y-77306785D02*
X144043257Y-77342500D01*
X144043257Y-77342500D02*
X143971828Y-77378214D01*
X143971828Y-77378214D02*
X143686114Y-77378214D01*
X143686114Y-77378214D02*
X143686114Y-76628214D01*
X143686114Y-76628214D02*
X143936114Y-76628214D01*
X143936114Y-76628214D02*
X144007543Y-76663928D01*
X144007543Y-76663928D02*
X144043257Y-76699642D01*
X144043257Y-76699642D02*
X144078971Y-76771071D01*
X144078971Y-76771071D02*
X144078971Y-76842500D01*
X144078971Y-76842500D02*
X144043257Y-76913928D01*
X144043257Y-76913928D02*
X144007543Y-76949642D01*
X144007543Y-76949642D02*
X143936114Y-76985357D01*
X143936114Y-76985357D02*
X143686114Y-76985357D01*
X152324571Y-75270014D02*
X152324571Y-74520014D01*
X152324571Y-74877157D02*
X152753142Y-74877157D01*
X152753142Y-75270014D02*
X152753142Y-74520014D01*
X153003142Y-74520014D02*
X153431714Y-74520014D01*
X153217428Y-75270014D02*
X153217428Y-74520014D01*
D12*
X145665000Y-69366000D02*
X147090000Y-69366000D01*
X147440000Y-69366000D02*
X149740000Y-69366000D01*
X147440000Y-72366000D02*
X147440000Y-69366000D01*
X149740000Y-69366000D02*
X149740000Y-72366000D01*
X149740000Y-72366000D02*
X147440000Y-72366000D01*
D13*
X145760933Y-76312801D02*
G75*
G03*
X145663895Y-77762158I-417133J-699999D01*
G01*
X144829933Y-74204601D02*
G75*
G03*
X144732895Y-75653958I-417133J-699999D01*
G01*
X149702333Y-74204601D02*
G75*
G03*
X149605295Y-75653958I-417133J-699999D01*
G01*
X140907400Y-72320000D02*
X140907400Y-73370000D01*
X137787400Y-77370000D02*
X137787400Y-73490000D01*
X139757400Y-72320000D02*
X140907400Y-72320000D01*
X139757400Y-78540000D02*
X140907400Y-78540000D01*
X140907400Y-77490000D02*
X141897400Y-77490000D01*
X140907400Y-78540000D02*
X140907400Y-77490000D01*
X156192200Y-78548000D02*
X156192200Y-77498000D01*
X159312200Y-73498000D02*
X159312200Y-77378000D01*
X157342200Y-78548000D02*
X156192200Y-78548000D01*
X157342200Y-72328000D02*
X156192200Y-72328000D01*
X156192200Y-73378000D02*
X155202200Y-73378000D01*
X156192200Y-72328000D02*
X156192200Y-73378000D01*
X150531733Y-76312801D02*
G75*
G03*
X150434695Y-77762158I-417133J-699999D01*
G01*
%LPC*%
D14*
X154990800Y-71069200D03*
D15*
X146378000Y-69866000D03*
X146378000Y-70366000D03*
X146378000Y-70866000D03*
X146378000Y-71366000D03*
X146378000Y-71866000D03*
X150802000Y-71866000D03*
X150802000Y-71366000D03*
X150802000Y-70866000D03*
X150802000Y-70366000D03*
X150802000Y-69866000D03*
D16*
X145343800Y-77012800D03*
D17*
X147243800Y-77012800D03*
D18*
X156210000Y-80010000D03*
X153670000Y-80010000D03*
D19*
X151130000Y-80010000D03*
D18*
X148590000Y-80010000D03*
X146050000Y-80010000D03*
X143510000Y-80010000D03*
X140970000Y-80010000D03*
D16*
X144412800Y-74904600D03*
D17*
X146312800Y-74904600D03*
D16*
X149285200Y-74904600D03*
D17*
X151185200Y-74904600D03*
D20*
X141122400Y-76930000D03*
X141122400Y-75930000D03*
X141122400Y-74930000D03*
X141122400Y-73930000D03*
D21*
X138597400Y-78230000D03*
X138597400Y-72630000D03*
D14*
X142189200Y-71069200D03*
D22*
X155977200Y-73938000D03*
X155977200Y-74938000D03*
X155977200Y-75938000D03*
X155977200Y-76938000D03*
D23*
X158502200Y-72638000D03*
X158502200Y-78238000D03*
D16*
X150114600Y-77012800D03*
D17*
X152014600Y-77012800D03*
M02*
